<svg width="1280" height="974" viewBox="0 0 1280 974" fill="none" xmlns="http://www.w3.org/2000/svg">
<g clip-path="url(#clip0_98_2)" filter="url(#filter0_d_98_2)">
<rect width="1280" height="904" transform="translate(0 70)" fill="#248F8D"/>
<path opacity="0.1" d="M743.702 229.427C661.643 226.632 583.426 200.667 508.851 172.265C434.276 143.864 360.36 112.389 280.223 97.3393C228.699 87.6487 169.774 86.2857 128.267 113.359C88.3163 139.405 75.4117 184.37 68.4704 226.089C63.2497 257.483 60.2209 290.516 74.4925 319.912C84.4272 340.309 102.058 357.461 114.255 377.004C156.681 445 126.688 528.855 80.7032 595.303C59.1367 626.489 34.1172 656.161 17.4769 689.322C0.83651 722.483 -6.87085 760.471 7.69536 794.29C22.1319 827.786 56.5205 852.988 93.7845 870.695C169.468 906.627 258.644 916.907 345.606 922.798C538.101 935.699 731.634 930.109 924.636 924.519C996.065 922.44 1067.81 920.349 1138.07 909.503C1177.09 903.486 1217.39 893.945 1245.72 870.914C1281.67 841.669 1290.59 792.165 1266.49 755.493C1226.07 694 1114.31 678.719 1086.05 612.721C1070.51 576.396 1086.48 535.924 1109.08 502.232C1157.55 429.962 1238.82 366.551 1243.1 283.933C1246.05 227.187 1206.98 170.371 1146.57 143.517C1083.26 115.346 995.464 118.904 948.76 165.462C900.665 213.43 816.144 231.888 743.702 229.427Z" fill="#6C63FF"/>
<path d="M285.491 907.436C285.491 907.436 220.673 859.41 208.429 798.321C203.463 772.664 190.144 749.276 170.469 731.665C161.057 723.381 150.892 715.958 140.1 709.489" stroke="#535461" stroke-width="2" stroke-miterlimit="10"/>
<path d="M132.168 671.004C137.849 678.534 140.418 710.448 140.418 710.448C140.418 710.448 110.048 698.724 104.356 691.205C101.622 687.59 100.466 683.059 101.141 678.609C101.817 674.159 104.268 670.154 107.956 667.475C111.644 664.796 116.267 663.663 120.808 664.325C125.349 664.986 129.435 667.389 132.168 671.004V671.004Z" fill="#6C63FF"/>
<path d="M186.638 696.044C187.228 705.389 171.707 733.548 171.707 733.548C171.707 733.548 152.698 707.514 152.097 698.17C151.868 693.715 153.44 689.351 156.471 686.024C159.502 682.698 163.749 680.675 168.291 680.396C172.833 680.116 177.304 681.602 180.736 684.531C184.168 687.46 186.285 691.597 186.627 696.044H186.638Z" fill="#6C63FF"/>
<path d="M239.435 768.025C235.145 776.387 207.227 793.02 207.227 793.02C207.227 793.02 204.245 761.141 208.535 752.779C210.647 748.846 214.249 745.883 218.567 744.528C222.885 743.172 227.574 743.532 231.624 745.531C235.674 747.529 238.762 751.006 240.222 755.213C241.683 759.419 241.401 764.02 239.435 768.025V768.025Z" fill="#6C63FF"/>
<path d="M266.882 831.274C264.089 840.226 239.447 861.235 239.447 861.235C239.447 861.235 230.997 830.315 233.79 821.353C235.133 817.052 238.163 813.45 242.216 811.339C246.268 809.228 251.01 808.781 255.398 810.097C259.786 811.413 263.462 814.383 265.615 818.354C267.769 822.326 268.225 826.973 266.882 831.274V831.274Z" fill="#6C63FF"/>
<path d="M143.612 756.186C153.04 757.433 182.844 744.243 182.844 744.243C182.844 744.243 157.695 723.822 148.22 722.575C143.672 721.976 139.068 723.172 135.42 725.9C131.772 728.629 129.379 732.665 128.768 737.122C128.157 741.579 129.378 746.092 132.162 749.667C134.945 753.242 139.064 755.587 143.612 756.186V756.186Z" fill="#6C63FF"/>
<path d="M176.669 829.773C186.097 828.19 210.456 806.88 210.456 806.88C210.456 806.88 180.216 794.776 170.8 796.358C168.545 796.72 166.386 797.516 164.447 798.701C162.509 799.885 160.828 801.434 159.504 803.258C158.179 805.082 157.236 807.145 156.729 809.328C156.222 811.512 156.162 813.772 156.551 815.978C156.94 818.184 157.771 820.293 158.996 822.183C160.221 824.073 161.816 825.706 163.688 826.989C165.561 828.271 167.674 829.178 169.906 829.655C172.138 830.133 174.444 830.173 176.692 829.773H176.669Z" fill="#6C63FF"/>
<path d="M218.799 896.983C228.357 896.983 256.052 880.016 256.052 880.016C256.052 880.016 228.345 863.072 218.788 863.072C214.199 863.072 209.799 864.858 206.554 868.038C203.31 871.218 201.487 875.531 201.487 880.027C201.487 884.524 203.31 888.837 206.554 892.017C209.799 895.197 214.199 896.983 218.788 896.983H218.799Z" fill="#6C63FF"/>
<path d="M915.161 492.056C915.161 492.056 955.112 422.697 1015.33 402.715C1040.62 394.484 1062.5 378.44 1077.7 356.988C1084.83 346.732 1090.98 335.856 1096.07 324.497" stroke="#535461" stroke-width="2" stroke-miterlimit="10"/>
<path d="M1133.88 311.792C1127.02 318.306 1095.09 325.052 1095.09 325.052C1095.09 325.052 1102.93 293.981 1109.79 287.456C1113.1 284.418 1117.5 282.775 1122.03 282.882C1126.56 282.989 1130.87 284.837 1134.03 288.027C1137.19 291.217 1138.94 295.495 1138.91 299.94C1138.89 304.385 1137.08 308.641 1133.88 311.792Z" fill="#6C63FF"/>
<path d="M1115.82 367.96C1106.4 369.785 1075.91 358.443 1075.91 358.443C1075.91 358.443 1099.71 336.498 1109.08 334.707C1111.33 334.218 1113.66 334.174 1115.93 334.578C1118.19 334.982 1120.36 335.826 1122.29 337.06C1124.21 338.295 1125.87 339.894 1127.16 341.765C1128.45 343.636 1129.35 345.741 1129.8 347.956C1130.25 350.171 1130.24 352.452 1129.78 354.664C1129.32 356.877 1128.41 358.976 1127.11 360.84C1125.8 362.703 1124.14 364.293 1122.2 365.516C1120.26 366.739 1118.09 367.57 1115.82 367.96V367.96Z" fill="#6C63FF"/>
<path d="M1050.11 428.807C1041.08 425.746 1020.57 400.844 1020.57 400.844C1020.57 400.844 1052.39 393.706 1061.44 396.767C1063.61 397.474 1065.62 398.597 1067.35 400.071C1069.08 401.546 1070.49 403.342 1071.5 405.355C1072.52 407.369 1073.11 409.56 1073.26 411.801C1073.4 414.042 1073.09 416.289 1072.34 418.41C1071.59 420.532 1070.41 422.487 1068.89 424.161C1067.36 425.835 1065.51 427.195 1063.44 428.162C1061.37 429.129 1059.13 429.685 1056.84 429.795C1054.55 429.906 1052.27 429.57 1050.11 428.807V428.807Z" fill="#6C63FF"/>
<path d="M989.725 463.874C980.297 462.349 955.831 441.154 955.831 441.154C955.831 441.154 985.989 428.842 995.405 430.367C999.937 431.097 1003.99 433.562 1006.66 437.22C1009.34 440.877 1010.43 445.427 1009.68 449.869C1008.94 454.311 1006.42 458.28 1002.69 460.905C998.958 463.529 994.316 464.593 989.784 463.862L989.725 463.874Z" fill="#6C63FF"/>
<path d="M1049.29 334.153C1049.27 343.521 1066.61 370.698 1066.61 370.698C1066.61 370.698 1083.92 343.555 1083.92 334.199C1083.98 331.936 1083.58 329.684 1082.74 327.576C1081.9 325.468 1080.63 323.547 1079.02 321.925C1077.41 320.303 1075.48 319.015 1073.35 318.135C1071.22 317.255 1068.94 316.801 1066.63 316.801C1064.32 316.801 1062.03 317.255 1059.9 318.135C1057.77 319.015 1055.85 320.303 1054.24 321.925C1052.62 323.547 1051.36 325.468 1050.52 327.576C1049.68 329.684 1049.27 331.936 1049.33 334.199L1049.29 334.153Z" fill="#6C63FF"/>
<path d="M979.248 376.034C982.1 384.974 1006.9 405.822 1006.9 405.822C1006.9 405.822 1015.14 374.844 1012.27 365.905C1010.78 361.763 1007.71 358.349 1003.7 356.384C999.69 354.418 995.06 354.053 990.784 355.366C986.507 356.679 982.917 359.567 980.77 363.422C978.622 367.277 978.085 371.799 979.271 376.034H979.248Z" fill="#6C63FF"/>
<path d="M916.941 425.897C918.214 435.137 939.049 459.82 939.049 459.82C939.049 459.82 952.496 430.655 951.223 421.38C950.971 419.133 950.262 416.958 949.139 414.983C948.017 413.008 946.502 411.274 944.685 409.881C942.868 408.488 940.785 407.465 938.559 406.873C936.333 406.281 934.008 406.131 931.722 406.432C929.436 406.733 927.234 407.479 925.247 408.627C923.259 409.774 921.526 411.299 920.149 413.113C918.771 414.927 917.778 416.992 917.227 419.187C916.676 421.383 916.579 423.664 916.941 425.897V425.897Z" fill="#6C63FF"/>
<path opacity="0.25" d="M1133.88 311.792C1127.02 318.306 1095.09 325.052 1095.09 325.052C1095.09 325.052 1102.93 293.981 1109.79 287.456C1113.1 284.418 1117.5 282.775 1122.03 282.882C1126.56 282.989 1130.87 284.837 1134.03 288.027C1137.19 291.217 1138.94 295.495 1138.91 299.94C1138.89 304.385 1137.08 308.641 1133.88 311.792Z" fill="black"/>
<path opacity="0.25" d="M1115.82 367.96C1106.4 369.785 1075.91 358.443 1075.91 358.443C1075.91 358.443 1099.71 336.498 1109.08 334.707C1111.33 334.218 1113.66 334.174 1115.93 334.578C1118.19 334.982 1120.36 335.826 1122.29 337.06C1124.21 338.295 1125.87 339.894 1127.16 341.765C1128.45 343.636 1129.35 345.741 1129.8 347.956C1130.25 350.171 1130.24 352.452 1129.78 354.664C1129.32 356.877 1128.41 358.976 1127.11 360.84C1125.8 362.703 1124.14 364.293 1122.2 365.516C1120.26 366.739 1118.09 367.57 1115.82 367.96V367.96Z" fill="black"/>
<path opacity="0.25" d="M1050.11 428.807C1041.08 425.746 1020.57 400.844 1020.57 400.844C1020.57 400.844 1052.39 393.706 1061.44 396.767C1063.61 397.474 1065.62 398.597 1067.35 400.071C1069.08 401.546 1070.49 403.342 1071.5 405.355C1072.52 407.369 1073.11 409.56 1073.26 411.801C1073.4 414.042 1073.09 416.289 1072.34 418.41C1071.59 420.532 1070.41 422.487 1068.89 424.161C1067.36 425.835 1065.51 427.195 1063.44 428.162C1061.37 429.129 1059.13 429.685 1056.84 429.795C1054.55 429.906 1052.27 429.57 1050.11 428.807V428.807Z" fill="black"/>
<path opacity="0.25" d="M989.725 463.874C980.297 462.349 955.831 441.154 955.831 441.154C955.831 441.154 985.989 428.842 995.405 430.367C999.937 431.097 1003.99 433.562 1006.66 437.22C1009.34 440.877 1010.43 445.427 1009.68 449.869C1008.94 454.311 1006.42 458.28 1002.69 460.905C998.958 463.529 994.316 464.593 989.784 463.862L989.725 463.874Z" fill="black"/>
<path opacity="0.25" d="M1049.29 334.153C1049.27 343.521 1066.61 370.698 1066.61 370.698C1066.61 370.698 1083.92 343.555 1083.92 334.199C1083.98 331.936 1083.58 329.684 1082.74 327.576C1081.9 325.468 1080.63 323.547 1079.02 321.925C1077.41 320.303 1075.48 319.015 1073.35 318.135C1071.22 317.255 1068.94 316.801 1066.63 316.801C1064.32 316.801 1062.03 317.255 1059.9 318.135C1057.77 319.015 1055.85 320.303 1054.24 321.925C1052.62 323.547 1051.36 325.468 1050.52 327.576C1049.68 329.684 1049.27 331.936 1049.33 334.199L1049.29 334.153Z" fill="black"/>
<path opacity="0.25" d="M979.248 376.034C982.1 384.974 1006.9 405.822 1006.9 405.822C1006.9 405.822 1015.14 374.844 1012.27 365.905C1010.78 361.763 1007.71 358.349 1003.7 356.384C999.69 354.418 995.06 354.053 990.784 355.366C986.507 356.679 982.917 359.567 980.77 363.422C978.622 367.277 978.085 371.799 979.271 376.034H979.248Z" fill="black"/>
<path opacity="0.25" d="M916.941 425.897C918.214 435.137 939.049 459.82 939.049 459.82C939.049 459.82 952.496 430.655 951.223 421.38C950.971 419.133 950.262 416.958 949.139 414.983C948.017 413.008 946.502 411.274 944.685 409.881C942.868 408.488 940.785 407.465 938.559 406.873C936.333 406.281 934.008 406.131 931.722 406.432C929.436 406.733 927.234 407.479 925.247 408.627C923.259 409.774 921.526 411.299 920.149 413.113C918.771 414.927 917.778 416.992 917.227 419.187C916.676 421.383 916.579 423.664 916.941 425.897V425.897Z" fill="black"/>
<path d="M917.459 490.681C917.459 490.681 925.308 411.401 972.047 369.243C991.761 351.673 1005.13 328.314 1010.16 302.667C1012.45 290.475 1013.59 278.103 1013.57 265.707" stroke="#535461" stroke-width="2" stroke-miterlimit="10"/>
<path d="M1042.86 238.956C1039.33 247.642 1012.88 266.492 1012.88 266.492C1012.88 266.492 1007.2 234.972 1010.77 226.286C1012.49 222.115 1015.83 218.785 1020.06 217.027C1024.28 215.269 1029.04 215.228 1033.3 216.913C1037.56 218.598 1040.95 221.87 1042.75 226.011C1044.54 230.151 1044.58 234.82 1042.86 238.991V238.956Z" fill="#6C63FF"/>
<path d="M1049.59 297.539C1041.78 302.922 1009.17 304.689 1009.17 304.689C1009.17 304.689 1021.87 275.19 1029.69 269.807C1031.54 268.448 1033.65 267.467 1035.9 266.922C1038.15 266.378 1040.48 266.28 1042.77 266.636C1045.05 266.992 1047.24 267.794 1049.21 268.994C1051.17 270.194 1052.87 271.769 1054.2 273.624C1055.53 275.479 1056.47 277.577 1056.96 279.794C1057.45 282.011 1057.48 284.302 1057.05 286.531C1056.62 288.76 1055.74 290.881 1054.46 292.77C1053.18 294.659 1051.52 296.277 1049.59 297.528V297.539Z" fill="#6C63FF"/>
<path d="M1014.64 379.291C1005.12 380.077 976.054 365.431 976.054 365.431C976.054 365.431 1002.22 346.258 1011.74 345.472C1016.31 345.095 1020.85 346.514 1024.36 349.417C1027.86 352.32 1030.05 356.468 1030.43 360.95C1030.81 365.431 1029.37 369.879 1026.41 373.314C1023.44 376.75 1019.21 378.892 1014.64 379.268V379.291Z" fill="#6C63FF"/>
<path d="M973.968 435.298C964.717 437.608 933.558 428.056 933.558 428.056C933.558 428.056 956.032 404.829 965.283 402.473C969.724 401.344 974.441 401.99 978.396 404.27C982.351 406.55 985.22 410.276 986.372 414.629C987.524 418.982 986.864 423.605 984.538 427.481C982.212 431.358 978.41 434.169 973.968 435.298V435.298Z" fill="#6C63FF"/>
<path d="M974.793 293.057C978.659 301.616 1005.69 319.623 1005.69 319.623C1005.69 319.623 1010.29 287.929 1006.42 279.37C1004.5 275.366 1001.05 272.259 996.818 270.713C992.585 269.167 987.904 269.304 983.773 271.096C979.643 272.888 976.391 276.192 974.713 280.302C973.035 284.412 973.064 289.002 974.793 293.092V293.057Z" fill="#6C63FF"/>
<path d="M928.078 359.148C934.383 366.182 965.66 375.399 965.66 375.399C965.66 375.399 960.38 343.809 954.075 336.775C952.587 335.066 950.767 333.664 948.721 332.651C946.676 331.637 944.445 331.032 942.158 330.871C939.872 330.71 937.576 330.995 935.403 331.711C933.23 332.427 931.224 333.559 929.502 335.042C927.779 336.524 926.374 338.327 925.369 340.346C924.364 342.365 923.778 344.56 923.645 346.803C923.513 349.046 923.836 351.292 924.597 353.411C925.358 355.53 926.541 357.48 928.078 359.148V359.148Z" fill="#6C63FF"/>
<path d="M891.674 429.512C896.67 437.482 925.909 451.746 925.909 451.746C925.909 451.746 926.156 419.74 921.195 411.759C918.725 408.074 914.888 405.477 910.497 404.518C906.106 403.559 901.506 404.315 897.674 406.624C893.842 408.933 891.078 412.614 889.969 416.887C888.86 421.16 889.492 425.689 891.732 429.512H891.674Z" fill="#6C63FF"/>
<path d="M857.356 180.2C859.312 173.166 861.669 166.098 863.319 158.971C861.339 166.098 858.97 173.189 857.356 180.2Z" fill="url(#paint0_linear_98_2)"/>
<path d="M848.588 247.954C848.423 247.677 848.305 247.4 848.175 247.146C848.175 247.03 848.057 246.938 848.01 246.822C847.753 246.941 847.49 247.045 847.221 247.134C846.702 247.33 846.172 247.515 845.63 247.665C845.088 247.816 844.864 247.896 844.451 247.989C844.109 248.104 843.758 248.193 843.402 248.254L843.497 248.462C843.933 248.37 844.357 248.289 844.793 248.174L844.911 249.606C845.406 249.606 845.865 249.537 846.313 249.537C846.525 249.525 846.738 249.525 846.95 249.537C847.869 249.537 848.67 249.537 849.307 249.537C849.059 249.017 848.8 248.474 848.588 247.954ZM1087.82 621.176C1082.28 613.865 1071.23 535.393 1071.23 535.393C1071.23 535.393 1049.49 479.594 1055.41 457.325C1061.34 435.056 1039.22 378.079 1039.22 378.079C1039.22 378.079 1024.61 371.853 1023.82 362.613C1023.82 362.613 964.151 344.133 961.358 330.272C959.095 318.907 922.091 310.753 908.797 308.177C904.743 292.145 900.665 277.188 897.66 269.022C896.847 266.481 896.081 264.286 895.374 262.554C890.295 249.848 874.597 248.693 863.213 249.71C862.719 247.544 861.803 245.493 860.514 243.669C860.326 243.042 859.953 242.483 859.442 242.064C859.197 241.859 858.937 241.674 858.664 241.509C858.458 241.135 858.187 240.799 857.862 240.516C857.539 240.23 857.183 239.982 856.802 239.777C856.528 239.631 856.244 239.504 855.953 239.395C855.27 239.141 854.564 238.951 853.844 238.829C853.005 238.66 852.154 238.552 851.298 238.506C853.378 237.614 855.233 236.285 856.731 234.614C857.75 233.44 858.509 232.071 858.958 230.594C859.332 229.366 859.499 228.086 859.453 226.806C859.148 227.333 858.793 227.832 858.393 228.296C858.888 223.179 856.13 217.981 854.551 212.888C852.638 206.256 852.283 199.286 853.514 192.502C855.093 182.268 859.006 171.919 861.657 161.501C861.664 161.443 861.664 161.385 861.657 161.328C863.048 156.154 863.908 150.857 864.226 145.515C864.686 134.739 861.869 123.986 857.344 114.168C853.325 105.471 847.397 96.912 838.323 93.3777C831.582 90.7096 824.028 91.1369 816.768 90.698C800.481 89.7047 784.949 84.0913 769.463 78.9861C753.978 73.8809 738.045 69.2377 721.746 70.1271C705.448 71.0165 688.678 78.7205 681.241 92.8579C678.884 97.2701 677.529 102.179 674.712 106.325C669.433 114.145 659.981 118.06 652.097 123.454C644.213 128.848 637.272 136.506 634.42 145.642C632.862 150.565 632.643 155.8 633.783 160.831V160.831C634.04 161.967 634.37 163.086 634.773 164.18C635.892 167.232 637.636 170.027 639.9 172.393C641.607 174.141 643.569 175.632 645.721 176.816V176.816C648.425 178.285 651.319 179.389 654.324 180.097C654.218 180.443 654.112 180.813 653.994 181.171C653.806 181.76 653.641 182.326 653.464 182.961C653.075 184.382 652.71 185.826 652.403 187.281C652.391 187.384 652.391 187.489 652.403 187.593C650.956 194.162 650.229 200.865 650.235 207.586C650.233 210.765 650.398 213.942 650.73 217.104V217.104C655.444 263.974 694.924 300.946 743.702 303.349C745.375 303.43 747.06 303.476 748.769 303.476C749.547 303.476 750.313 303.476 751.126 303.476C751.892 304.469 752.646 305.486 753.365 306.479C754.084 307.472 754.744 308.489 755.369 309.482L753.66 307.75L751.951 306.213C751.488 306.837 750.971 307.42 750.407 307.957C749.293 307.573 748.155 307.257 747.001 307.01V307.01C742.111 305.948 734.662 305.555 724.857 308.454C715.842 311.099 704.823 316.539 691.93 326.877L629.105 363.837L595.117 384.096L582.872 413.434C582.872 413.434 573.668 448.292 563.427 488.233C563.026 488.349 562.637 488.464 562.249 488.603C561.419 488.51 560.585 488.464 559.75 488.464C553.808 488.45 548.092 490.694 543.803 494.724C539.513 498.754 536.984 504.256 536.746 510.075C516.381 534.33 515.227 558.585 520.011 569.72C520.444 570.763 520.99 571.758 521.638 572.688C524.772 577.124 530.629 588.558 536.569 600.744C536.416 601.749 536.322 602.592 536.274 603.227C536.264 603.435 536.264 603.643 536.274 603.851C536.274 603.851 539.81 656.185 528.025 671.188C525.444 674.457 525.833 678.754 528.025 683.512C535.921 700.63 567.139 723.488 567.139 723.488C567.139 723.488 604.58 723.291 625.439 721.062C625.381 723.118 625.333 725.163 625.286 727.161C624.815 747.35 624.815 764.272 624.815 764.272L624.037 785.443C624.037 785.443 616.966 830.062 613.431 842.362C611.203 850.078 613.772 921.516 616.012 974.035H984.904C989.241 942.965 983.125 848.565 983.125 848.565C983.125 848.565 977.315 824.159 977.103 802.884C977.091 802.86 977.085 802.835 977.085 802.809C977.085 802.783 977.091 802.757 977.103 802.734C977.103 800.874 977.103 799.061 977.173 797.282L979.849 797.19L984.657 797.028H985.093C985.093 797.028 985.211 796.589 985.482 795.873C986.118 794.089 986.985 792.393 988.063 790.825C990.113 787.857 993.319 784.946 998.139 784.75C1000.8 784.646 1004.93 782.532 1009.58 779.414C1009.61 779.421 1009.65 779.421 1009.68 779.414C1022.2 771.109 1038.76 755.782 1042.78 753.264C1048.31 749.799 1074.78 726.699 1074.78 726.699C1074.78 726.699 1078.72 721.801 1082.93 715.899L1083.08 715.691C1088.32 708.299 1093.88 699.463 1092.51 696.68C1090.16 691.69 1094.09 679.759 1094.09 679.759C1106.38 657.709 1093.36 628.487 1087.82 621.176ZM859.937 265.915C860.05 266.26 860.121 266.616 860.149 266.977C859.854 266.596 859.559 266.192 859.265 265.822L858.982 265.453L858.782 265.175L859.23 264.575C859.23 264.575 859.23 264.575 859.23 264.656C859.541 265.03 859.78 265.457 859.937 265.915V265.915ZM855.977 255.681C854.692 255.935 853.679 256.166 853.019 256.34C852.182 254.884 851.381 253.429 850.662 251.95C852.551 253.025 854.331 254.274 855.977 255.681V255.681ZM853.761 257.506C853.758 257.483 853.758 257.46 853.761 257.437L853.856 257.506C854.339 257.818 854.81 258.118 855.246 258.43C855.635 258.707 855.989 258.973 856.342 259.25C856.107 259.654 855.847 260.07 855.588 260.405C855.175 259.77 854.787 259.158 854.409 258.523C854.174 258.268 853.962 257.922 853.761 257.506ZM846.69 243.253C848.967 243.033 851.261 243.033 853.537 243.253V243.253C853.856 243.253 854.138 243.311 854.421 243.357C855.06 243.454 855.688 243.613 856.295 243.831C857.688 245.74 858.545 247.975 858.782 250.31L858.145 250.403L857.521 250.518C856.342 250.715 855.164 250.911 854.244 251.096L853.066 251.338C851.499 251.673 850.591 251.927 850.556 251.939C850.403 251.627 850.249 251.338 850.084 251.038C849.825 250.541 849.554 250.033 849.318 249.537C849.083 249.04 848.776 248.474 848.529 247.954C848.364 247.677 848.246 247.4 848.116 247.146C848.116 247.03 847.998 246.938 847.951 246.822C847.883 246.7 847.824 246.572 847.775 246.441C847.056 245.009 846.396 243.577 845.759 242.167C845.689 242.029 845.63 241.879 845.571 241.74L846.466 241.682V241.983L846.69 243.253ZM565.513 959.759C565.419 942.561 564.146 923.953 560.61 906.489C559.102 899.062 557.546 891.636 555.967 884.336C555.566 882.511 555.178 880.709 554.789 878.907L551.159 879.381H550.829C540.93 833.631 530.582 793.32 530.582 793.32C530.582 793.32 510.029 716.407 512.41 710.274C512.716 709.477 512.327 707.329 511.455 704.176C506.482 686.689 485.717 638.501 478.457 622.031C478.457 621.961 478.398 621.881 478.375 621.823C477.196 619.062 476.348 617.203 476.089 616.66L477.797 592.081L477.892 590.603L478.116 587.461L478.021 587.38L478.116 585.925C478.116 585.925 460.179 571.51 429.797 561.103C428.619 560.688 427.37 560.283 426.132 559.891C427.652 549.946 429.668 538.719 432.296 527.781C432.543 526.684 432.814 525.621 433.097 524.547C433.345 523.473 433.627 522.433 433.91 521.382C434.358 519.673 434.841 517.986 435.336 516.323C436.974 515.815 438.589 515.249 440.18 514.648L440.793 514.417C460.392 506.943 476.564 492.761 486.315 474.498C496.065 456.235 498.733 435.128 493.825 415.086V415.086C491.026 403.718 485.858 393.042 478.646 383.727C478.104 383.011 477.526 382.295 476.949 381.59C476.371 380.885 475.676 380.1 475.028 379.384C478.434 371.795 482.453 364.577 482.783 357.196C482.841 356.261 482.841 355.324 482.783 354.389V354.274C482.346 349.527 480.202 344.722 475.205 339.674C467.91 332.271 457.527 328.517 447.145 326.715C436.762 324.913 426.179 324.867 415.738 323.654C398.426 321.621 381.561 316.389 364.249 314.784C342.925 312.848 321.457 316.433 301.989 325.179C289.108 330.954 276.063 341.049 275.285 354.898C274.648 366.344 282.78 377.316 280.729 388.624C278.691 399.735 267.141 408.479 268.155 419.717C268.544 424.106 270.842 428.033 273.717 431.533C274.707 432.688 275.756 433.843 276.84 434.998C281.036 439.353 285.655 443.534 288.001 449.02C288.095 449.251 288.189 449.482 288.272 449.713C290.263 455.13 289.368 461.979 284.442 465.086C284.469 465.107 284.489 465.135 284.501 465.167V465.167C284.571 465.26 284.642 465.329 284.701 465.421C284.708 465.403 284.708 465.382 284.701 465.364C286.447 467.393 288.802 468.832 291.43 469.476L292.432 469.776C291.619 470.642 290.853 471.543 290.075 472.49L289.568 473.149C288.269 474.86 287.088 476.654 286.033 478.519C285.432 479.559 284.854 480.598 284.371 481.638C282.755 484.807 281.586 488.175 280.894 491.652C279.633 499.298 281.413 507.268 279.504 514.752C277.147 523.993 269.687 531.084 265.48 539.666C257.513 555.836 262.027 574.813 263.629 592.67C265.81 616.926 262.274 641.285 258.75 665.379C256.881 678.192 255.011 691.016 253.141 703.852C248.427 736.07 243.713 768.287 238.999 800.505C237.278 812.309 235.239 824.76 227.214 833.873H227.296C227.296 833.873 227.296 833.942 227.214 833.966C229.623 834.998 232.185 835.645 234.803 835.883V835.883C245.28 836.911 256.382 831.944 265.81 826.516C273.276 822.287 280.347 817.421 286.94 811.974C285.974 815.439 284.937 819.216 283.829 823.282C283.832 823.32 283.832 823.359 283.829 823.397V823.397C270.524 873.063 249.122 964.113 249.122 964.113C249.122 964.113 247.178 968.075 244.656 973.977H576.991C573.102 969.357 569.484 964.933 566.656 961.364L565.513 959.759ZM319.443 500.523C319.525 500.384 319.584 500.257 319.667 500.13C319.667 500.499 319.667 500.857 319.667 501.204C319.667 501.55 319.667 501.862 319.667 502.186C319.667 502.509 319.667 502.475 319.667 502.636C319.667 502.798 319.667 502.636 319.667 502.636C319.667 503.11 319.561 503.583 319.478 504.057C319.478 504.057 319.478 504.115 319.478 504.161L320.657 504.588L322.024 505.143C330.1 508.269 338.279 511.099 346.56 513.632C347.409 513.898 348.269 514.152 349.129 514.394L349.306 515.827C349.518 517.293 349.719 518.783 349.907 520.273C349.907 520.273 349.907 520.343 349.907 520.389C350.437 524.512 350.956 528.624 351.416 532.644C351.416 532.644 329.778 524.559 330.049 536.836C330.037 537.056 330.037 537.275 330.049 537.495C330.025 537.787 330.025 538.08 330.049 538.373C330.25 547.936 333.302 553.607 333.915 556.518C333.878 556.638 333.814 556.749 333.726 556.841C333.203 557.956 333.023 559.197 333.208 560.41C333.187 562.477 333.353 564.541 333.703 566.578C333.066 566.959 332.442 567.34 331.817 567.733C331.346 568.022 330.898 568.345 330.438 568.669C327.547 558.84 323.765 549.285 319.137 540.117C315.896 533.579 312.254 526.765 312.289 519.592C312.289 519.13 312.29 518.656 312.348 518.183C312.48 516.104 312.884 514.05 313.55 512.073C313.822 511.322 314.116 510.583 314.446 509.855C315.216 508.126 316.078 506.437 317.027 504.796C317.64 503.71 318.288 502.636 318.913 501.551C319.113 501.227 319.302 500.892 319.49 500.569L319.443 500.523ZM848.588 247.954C848.423 247.677 848.305 247.4 848.175 247.146C848.175 247.03 848.057 246.938 848.01 246.822C847.753 246.941 847.49 247.045 847.221 247.134C846.702 247.33 846.172 247.515 845.63 247.665C845.088 247.816 844.864 247.896 844.451 247.989L843.402 248.254L843.497 248.462C843.933 248.37 844.357 248.289 844.793 248.174L844.911 249.606C845.406 249.606 845.865 249.537 846.313 249.537H846.95C847.869 249.537 848.67 249.537 849.307 249.537C849.059 249.017 848.8 248.474 848.588 247.954Z" fill="url(#paint1_linear_98_2)"/>
<path d="M591.087 417.603L584.016 420.664C584.016 420.664 537.925 596.158 537.925 610.342C537.925 624.525 635.657 703.448 635.657 703.448L650.907 602.569C650.907 602.569 629.011 371.229 591.087 417.603Z" fill="#E8F5FF"/>
<path d="M805.467 361.781L764.632 340.899C762.344 331.342 758.286 322.279 752.658 314.16C746.683 305.705 738.74 297.4 728.841 293.069C703.821 282.073 834.67 224.357 834.67 224.357C836.731 231.29 839.158 238.114 841.941 244.801C848.682 261.11 859.866 282.2 874.279 288.206C898.78 298.428 805.467 361.781 805.467 361.781Z" fill="#FFC1C7"/>
<path opacity="0.1" d="M841.941 244.801C836.35 264.072 824.724 281.135 808.703 293.581C792.683 306.026 773.078 313.225 752.658 314.16C746.683 305.705 738.74 297.4 728.841 293.069C703.821 282.073 834.67 224.357 834.67 224.357C836.731 231.29 839.158 238.114 841.941 244.801V244.801Z" fill="black"/>
<path d="M845.618 215.66C845.623 234.56 839.908 253.037 829.198 268.755C818.487 284.472 803.261 296.723 785.445 303.959C767.63 311.194 748.025 313.089 729.111 309.404C710.196 305.718 692.822 296.618 679.184 283.254C665.547 269.891 656.26 252.863 652.498 234.326C648.735 215.789 650.666 196.574 658.047 179.113C665.427 161.651 677.925 146.727 693.961 136.228C709.996 125.729 728.848 120.126 748.133 120.128C760.95 120.07 773.653 122.501 785.506 127.281C797.36 132.062 808.129 139.096 817.193 147.978C826.257 156.861 833.436 167.415 838.315 179.032C843.194 190.649 845.676 203.098 845.618 215.66V215.66Z" fill="#FFC1C7"/>
<path d="M859.689 349.515L833.102 410.315L809.65 450.672H734.58L712.684 395.496L721.558 338.277H778.892L815.908 336.232L828.412 332.144L836.473 336.625L859.689 349.515Z" fill="#575A89"/>
<path opacity="0.1" d="M850.532 268.467C850.532 268.467 867.114 271.932 852.265 283.864C837.416 295.795 786.187 333.737 786.187 333.737C786.187 333.737 804.182 349.446 800.458 367.845L860.078 335.273L870.685 283.159C870.685 283.159 871.875 267.497 850.532 268.467Z" fill="black"/>
<path opacity="0.1" d="M797.912 333.737L759.988 339.87C759.988 339.87 767.814 368.226 763.901 376.277C763.783 376.527 763.684 376.786 763.606 377.051L748.133 418.042L759.729 450.233L799.869 396.582L786.186 376.277C786.186 376.277 800.647 357.496 809.25 350.982C817.853 344.467 797.912 333.737 797.912 333.737Z" fill="black"/>
<path d="M797.912 332.155L759.988 338.277C759.988 338.277 767.814 366.633 763.901 374.683C763.783 374.933 763.684 375.192 763.606 375.457L748.133 416.449L759.729 448.639L799.869 394.954L786.186 374.648C786.186 374.648 800.647 355.868 809.25 349.354C817.853 342.839 797.912 332.155 797.912 332.155Z" fill="#DCE6F2"/>
<path d="M852.123 265.407C852.123 265.407 868.705 268.872 853.844 280.803C838.983 292.734 786.187 333.738 786.187 333.738C786.187 333.738 805.738 346.385 802.026 364.773L861.646 332.213L872.252 280.098C872.252 280.098 873.431 264.436 852.123 265.407Z" fill="#575A89"/>
<path opacity="0.1" d="M755.263 317.775C755.263 317.775 758.881 324.405 774.85 336.359C774.85 336.359 748.263 350.219 758.433 369.705L717.763 359.309L711.505 340.148L755.263 317.775Z" fill="black"/>
<path d="M753.695 316.25C753.695 316.25 757.313 322.88 773.282 334.835C773.282 334.835 746.695 348.626 756.866 368.169L716.208 357.773L709.95 338.623L753.695 316.25Z" fill="#575A89"/>
<path opacity="0.1" d="M859.689 349.515L833.102 410.315L809.697 450.672H734.58L712.684 395.496L721.546 338.277H737.491C737.232 351.629 742.205 367.314 741.887 373.147C741.345 382.733 756.477 434.455 756.477 434.455C756.477 434.455 788.143 384.258 800.647 379.788C808.507 376.981 825.159 353.627 836.461 336.625L859.689 349.515Z" fill="black"/>
<path d="M964.422 669.467L961.724 672.794C961.724 672.794 981.275 768.972 975.866 790.814C974.946 794.751 974.421 798.766 974.298 802.803V802.976C973.344 825.199 980.191 854.04 980.191 854.04C980.191 854.04 985.659 939.049 982.548 974.012H616.483C614.338 922.313 612.028 855.333 614.126 847.906C617.662 835.652 624.733 791.195 624.733 791.195L625.511 770.127C625.511 770.127 625.51 749.764 626.147 727.08C626.418 716.881 626.819 706.174 627.396 696.68C628.139 684.737 629.176 674.676 630.602 669.733C631.48 665.986 631.985 662.164 632.11 658.321C632.11 657.963 632.11 657.594 632.181 657.224C632.181 656.069 632.299 654.822 632.346 653.54C632.346 653.182 632.346 652.823 632.346 652.385C632.57 644.946 632.487 636.122 632.24 626.974C632.24 626.477 632.24 625.969 632.24 625.461C632.039 618.6 631.745 611.601 631.415 604.948C630.389 584.157 629.058 566.578 629.058 566.578L584.098 420.583L596.213 391.338L629.836 371.149L692.001 334.361C722.324 309.933 742.288 312.866 749.901 315.546C750.64 315.793 751.364 316.082 752.069 316.412C752.305 316.528 752.493 316.62 752.67 316.724C752.912 316.836 753.145 316.968 753.366 317.117V317.117C751.281 318.1 749.47 319.562 748.086 321.379C746.527 323.446 745.416 325.805 744.821 328.309C744.423 329.861 744.144 331.44 743.985 333.033C743.832 334.708 743.773 336.44 743.773 338.184C743.857 342.009 744.191 345.825 744.774 349.607C744.774 349.677 744.774 349.769 744.774 349.862C745.163 352.564 745.646 355.209 746.118 357.693C746.112 357.735 746.112 357.777 746.118 357.82C746.66 360.719 747.202 363.398 747.567 365.708C747.638 366.124 747.697 366.505 747.756 366.863C748.016 368.39 748.138 369.936 748.121 371.484C748.254 375.22 748.767 378.935 749.653 382.572C749.96 384.096 750.313 385.725 750.702 387.423C751.232 389.733 751.81 392.251 752.435 394.815C752.776 396.224 753.142 397.679 753.519 399.123C753.66 399.701 753.813 400.278 753.955 400.867L754.191 401.78C756.701 411.563 759.423 421.3 761.097 427.19C762.086 430.655 762.711 432.792 762.711 432.792C762.711 432.792 780.459 404.667 794.625 388.659C794.837 388.428 795.025 388.208 795.226 388C796.628 386.418 798.007 384.974 799.327 383.704C802.214 380.885 804.807 378.876 806.893 378.136C807.338 377.977 807.767 377.78 808.177 377.547C813.976 374.325 823.333 362.625 832.089 350.37C832.949 349.215 833.786 347.956 834.635 346.766C836.579 344.017 838.465 341.257 840.244 338.612C841.611 336.59 842.919 334.627 844.157 332.756C850.049 323.77 854.198 317.071 854.198 317.071L862.376 316.712L863.802 316.643H864.757L901.891 314.957C901.891 314.957 903.494 315.223 906.134 315.742C906.275 315.742 906.417 315.742 906.57 315.835C919.746 318.399 956.35 326.519 958.589 337.78C961.323 351.571 1020.37 369.97 1020.37 369.97C1021.14 379.211 1035.6 385.298 1035.6 385.298C1035.6 385.298 1057.5 442.009 1051.64 464.232C1045.86 486.177 1066.7 540.463 1067.26 541.988L1063.26 546.931L964.422 669.467Z" fill="#E8F5FF"/>
<path opacity="0.1" d="M850.52 264.436C850.52 264.436 886.665 254.388 894.879 275.074C903.093 295.76 921.466 379.303 921.466 379.303C921.466 379.303 873.76 388.116 861.257 379.303C853.922 374.073 844.844 371.746 835.836 372.789L808.861 390.796L800.894 388.485C800.894 388.485 844.051 325.606 853.431 304.238C862.812 282.87 865.982 273.318 850.52 264.436Z" fill="black"/>
<path d="M848.953 259.816C848.953 259.816 885.121 249.767 893.371 270.454C901.62 291.14 919.958 374.683 919.958 374.683C919.958 374.683 872.264 383.496 859.748 374.683C852.418 369.452 843.344 367.126 834.34 368.169L807.341 386.175L799.374 383.865C799.374 383.865 842.531 320.986 851.911 299.618C861.292 278.25 864.415 268.721 848.953 259.816Z" fill="#E8F5FF"/>
<path opacity="0.1" d="M606.336 593.097C606.336 593.097 633.312 599.612 638.403 614.557C643.494 629.503 618.463 629.885 618.463 629.885C618.463 629.885 603.213 603.446 606.336 593.097Z" fill="black"/>
<path opacity="0.1" d="M706.815 703.448C706.815 703.448 640.748 836.033 655.998 848.68C671.248 861.328 706.815 703.448 706.815 703.448Z" fill="black"/>
<path opacity="0.1" d="M797.913 605.745C797.913 605.745 850.697 734.529 840.138 754.419C829.579 774.308 862.812 754.419 862.812 754.419L797.913 605.745Z" fill="black"/>
<path d="M871.415 732.959C871.415 732.959 693.132 741.391 745.139 795.804C797.147 850.217 903.871 798.114 903.871 798.114L871.415 732.959Z" fill="#FFC1C7"/>
<path opacity="0.1" d="M845.618 215.66C845.634 228.192 843.123 240.604 838.229 252.182C836.591 252.366 834.953 252.482 833.374 252.551C831.017 247.481 832.278 241.625 832.325 236.046C832.372 230.467 830.274 223.907 824.794 222.405C813.87 219.391 806.327 239.407 795.556 235.792C787.306 233.043 789.463 220.777 784.714 213.696C780.954 208.094 773.424 206.512 767.566 203.001C755.11 195.505 755.487 183.516 749.7 172.173C743.643 160.288 730.844 163.799 719.731 170.81C711.293 176.147 704.01 183.296 694.983 187.547C687.169 191.243 678.39 192.583 669.728 192.779C664.395 192.981 659.06 192.429 653.889 191.139C659.972 168.724 674.166 149.243 693.823 136.329C713.481 123.415 737.26 117.949 760.726 120.95C784.192 123.952 805.744 135.216 821.361 152.642C836.979 170.068 845.596 192.466 845.606 215.66H845.618Z" fill="black"/>
<path d="M719.767 167.749C711.317 173.085 704.045 180.224 695.018 184.497C687.205 188.182 678.425 189.521 669.763 189.718C659.156 189.949 647.737 188.124 640.489 180.616C633.831 173.686 632.24 163.025 635.056 153.935C637.873 144.845 644.626 137.303 652.557 131.84C660.488 126.376 669.692 122.6 674.948 114.78C677.73 110.645 679.073 105.771 681.383 101.37C688.772 87.2906 705.389 79.6674 721.452 78.7203C737.515 77.7732 753.436 82.4626 768.733 87.5447C784.03 92.6268 799.445 98.2171 815.59 99.2681C822.779 99.7071 830.251 99.2681 836.921 101.936C845.889 105.505 851.77 114.041 855.777 122.727C860.267 132.521 863.06 143.217 862.589 153.912C861.599 176.747 846.207 199.154 852.972 221.03C854.763 226.863 858.122 232.846 856.331 238.679C853.714 247.192 842.507 249.132 833.444 249.536C831.087 244.466 832.348 238.598 832.395 233.031C832.443 227.464 830.345 220.892 824.877 219.39C813.94 216.399 806.398 236.381 795.65 232.777C787.459 230.016 789.581 217.762 784.82 210.681C781.06 205.068 773.518 203.497 767.672 199.986C755.216 192.49 755.593 180.501 749.806 169.158C743.702 157.216 730.892 160.727 719.767 167.749Z" fill="#99607E"/>
<path d="M546.893 607.27L537.901 610.342C537.901 610.342 541.436 662.456 529.651 677.402C517.866 692.348 568.353 729.505 568.353 729.505C568.353 729.505 637.555 729.124 639.511 723.73C641.467 718.336 635.975 627.171 635.975 627.171C635.975 627.171 598.829 612.987 601.952 590.383C601.952 590.383 590.615 643.641 573.81 641.343C557.004 639.044 537.924 625.288 546.893 607.27Z" fill="#E8F5FF"/>
<path opacity="0.1" d="M576.886 657.467C589.988 657.467 600.609 647.947 600.609 636.203C600.609 624.459 589.988 614.939 576.886 614.939C563.784 614.939 553.163 624.459 553.163 636.203C553.163 647.947 563.784 657.467 576.886 657.467Z" fill="black"/>
<path d="M602.824 608.806C602.824 608.806 598.11 467.801 557.075 499.217C516.04 530.634 515.639 568.207 523.453 579.306C531.266 590.406 556.321 645.974 556.321 645.974C560.24 648.2 564.641 649.485 569.165 649.722C573.688 649.96 578.204 649.143 582.344 647.34C586.483 645.537 590.127 642.799 592.979 639.349C595.83 635.899 597.806 631.837 598.747 627.494L602.824 608.806Z" fill="#FFC1C7"/>
<path opacity="0.1" d="M858.806 251.639C858.614 251.019 858.246 250.466 857.745 250.045C855.718 248.231 851.358 247.596 844.782 248.15L845.053 251.2C853.821 250.461 855.553 252.17 855.777 252.459V252.747L856.048 253.129C857.141 254.569 857.916 256.217 858.321 257.967C858.727 259.717 858.756 261.531 858.405 263.293C856.484 272.706 844.687 280.202 844.569 280.283L844.287 280.445L844.11 280.711C839.019 288.114 810.228 309.009 802.697 314.414L802.037 313.675C798.667 316.539 769.04 341.961 767.437 351.698C766.4 357.808 759.376 360.176 756.83 360.834C754.143 358.836 745.423 352.033 740.885 344.41C736.631 337.237 753.754 323.238 755.263 317.775L752.906 315.407C752.658 316.285 730.668 336.429 736.784 346.72C741.687 354.978 750.643 362.047 753.778 364.38C752.776 373.297 746.542 425.654 736.961 438.059C725.058 453.479 715.053 531.188 716.16 558.32C717.139 582.425 710.716 627.956 689.267 647.511C685.554 651.044 681.074 653.711 676.162 655.311C671.251 656.911 666.034 657.403 660.901 656.751H660.642H660.382C660.076 656.751 628.964 659.869 602.825 638.27C581.435 620.633 569.32 591.85 566.798 552.695H566.279L566.067 541.295C571.867 540.408 577.09 537.352 580.639 532.77C584.188 528.188 585.786 522.436 585.099 516.722C584.411 511.009 581.491 505.78 576.952 502.132C572.413 498.485 566.608 496.704 560.757 497.164C554.906 497.623 549.464 500.287 545.576 504.597C541.687 508.906 539.654 514.525 539.903 520.272C540.153 526.02 542.666 531.449 546.914 535.419C551.162 539.388 556.815 541.59 562.685 541.56H562.944L563.156 552.891L562.119 552.961C564.712 593.386 577.44 623.29 599.831 641.759C616.85 655.581 638.589 662.553 660.653 661.267C662.219 661.435 663.792 661.519 665.367 661.521C675.481 661.572 685.212 657.736 692.473 650.837C715.064 630.22 721.935 583.014 720.863 558.089C719.684 529.34 730.185 454.426 740.72 440.785C751.044 427.398 757.302 375.237 758.398 365.131C762.134 364.103 770.583 360.857 772.021 352.426C773.058 346.327 792.845 327.535 805.019 317.128L804.654 316.713C811.206 312.023 831.582 297.239 841.682 287.745C844.817 284.799 847.928 281.854 851.181 279.047C855.093 275.652 860.067 270.258 861.375 263.882C861.821 261.777 861.823 259.606 861.381 257.5C860.939 255.395 860.063 253.4 858.806 251.639V251.639Z" fill="black"/>
<path d="M753.377 363.653C752.882 363.318 741.144 355.082 735.264 345.172C729.159 334.881 751.15 314.749 751.386 313.871L753.743 316.239C752.246 321.691 735.122 335.701 739.377 342.862C744.739 351.906 756.029 359.818 756.147 359.899L753.377 363.653Z" fill="#353146"/>
<path d="M801.165 316.655L799.327 314.172C799.704 313.906 836.72 287.664 842.554 279.174L842.742 278.92L843.014 278.747C843.131 278.666 854.928 271.182 856.849 261.757C857.203 259.997 857.177 258.184 856.771 256.435C856.365 254.686 855.588 253.04 854.492 251.604L854.221 251.211V250.934C853.985 250.634 852.253 248.936 843.485 249.675L843.214 246.614C849.802 246.06 854.15 246.695 856.177 248.509C856.682 248.934 857.054 249.491 857.25 250.114C858.524 251.87 859.418 253.864 859.876 255.971C860.334 258.079 860.347 260.256 859.913 262.369C858.605 268.756 853.644 274.15 849.719 277.534C846.478 280.341 843.355 283.309 840.232 286.232C828.388 297.354 802.461 315.742 801.165 316.655Z" fill="#E8F5FF"/>
<path d="M564.546 537.274L561.424 537.33L561.772 555.934L564.894 555.878L564.546 537.274Z" fill="#E8F5FF"/>
<path d="M561.164 540.093C573.759 540.093 583.968 530.087 583.968 517.744C583.968 505.4 573.759 495.394 561.164 495.394C548.57 495.394 538.36 505.4 538.36 517.744C538.36 530.087 548.57 540.093 561.164 540.093Z" fill="#6C63FF"/>
<path d="M561.165 536.305C571.624 536.305 580.103 527.995 580.103 517.744C580.103 507.493 571.624 499.183 561.165 499.183C550.705 499.183 542.226 507.493 542.226 517.744C542.226 527.995 550.705 536.305 561.165 536.305Z" fill="#E8F5FF"/>
<path d="M663.882 660.031C662.308 660.033 660.734 659.952 659.168 659.788C637.106 661.061 615.372 654.09 598.346 640.28C575.955 621.799 563.251 591.931 560.634 551.47L565.348 551.181C567.87 590.337 579.985 619.131 601.387 636.757C627.526 658.298 658.626 655.237 658.933 655.237H659.192H659.451C664.586 655.886 669.804 655.392 674.717 653.792C679.63 652.193 684.112 649.528 687.829 645.997C709.266 626.442 715.689 580.912 714.711 556.806C713.532 529.652 723.538 451.942 735.452 436.534C745.882 423.032 752.352 362.174 752.423 361.562L752.6 359.829L754.344 359.529C754.45 359.529 764.632 357.635 765.905 350.173C767.555 340.448 797.135 315.026 800.494 312.15L803.569 315.615C791.348 326.01 771.562 344.814 770.572 350.924C769.134 359.379 760.684 362.613 756.96 363.629C755.781 373.747 749.571 425.896 739.283 439.283C728.747 452.924 718.246 527.838 719.425 556.587C720.438 581.512 713.638 628.729 691.047 649.335C683.772 656.252 674.017 660.092 663.882 660.031Z" fill="#353146"/>
<g opacity="0.1">
<path opacity="0.1" d="M855.659 188.355C857.591 181.355 859.925 174.31 861.551 167.218C859.607 174.344 857.261 181.355 855.659 188.355Z" fill="black"/>
<path opacity="0.1" d="M835.943 243.357C833.586 238.286 834.847 232.419 834.894 226.852C834.941 221.284 832.843 214.77 827.375 213.211C816.439 210.219 808.896 230.213 798.148 226.598C789.899 223.837 792.079 211.582 787.318 204.502C783.558 198.889 776.028 197.318 770.183 193.807C757.714 186.31 758.091 174.321 752.317 162.979C746.247 151.082 733.461 154.594 722.336 161.616C713.886 166.952 706.614 174.102 697.587 178.364C689.774 182.048 680.994 183.388 672.332 183.585C661.784 183.827 650.306 181.991 643.058 174.483C637.472 168.708 635.457 160.242 636.612 152.307C636.411 152.85 636.235 153.392 636.058 153.935C633.229 163.025 634.879 173.709 641.491 180.616C648.738 188.124 660.217 189.949 670.765 189.718C679.438 189.521 688.206 188.182 696.032 184.497C705.082 180.223 712.354 173.085 720.78 167.749C731.905 160.727 744.703 157.215 750.761 169.112C756.536 180.454 756.17 192.444 768.627 199.94C774.519 203.405 782.003 205.022 785.774 210.635C790.488 217.739 788.402 229.97 796.604 232.731C807.341 236.334 814.883 216.353 825.819 219.344C831.288 220.846 833.397 227.429 833.338 232.985C833.279 238.54 832.054 244.42 834.387 249.49C843.45 249.086 854.657 247.18 857.285 238.633C857.647 237.406 857.814 236.132 857.78 234.856C853.95 241.336 844.098 242.999 835.943 243.357Z" fill="black"/>
</g>
<path opacity="0.1" d="M1048.93 527.954L1062.61 542.138C1062.61 542.138 1073.56 620.298 1079.03 627.609C1084.5 634.921 1097.42 664.004 1085.29 685.845C1085.29 685.845 1081.38 697.731 1083.72 702.709C1086.07 707.687 1066.14 732.601 1066.14 732.601C1066.14 732.601 1039.94 755.586 1034.46 759.039C1028.98 762.493 1000.06 790.075 990.291 790.456C980.521 790.837 977.327 802.722 977.327 802.722L922.197 804.639C922.197 804.639 891.745 803.08 885.121 807.296C885.121 807.296 888.657 761.696 854.634 731.804L898.026 716.477C898.026 716.477 914.454 709.546 919.534 702.305C922.729 697.865 927.262 694.517 932.497 692.729C932.497 692.729 944.612 684.298 945.001 679.701C945.39 675.104 959.815 669.467 959.815 669.467L951.648 601.148L955.949 487.725C955.949 487.725 969.632 392.69 998.564 398.061C1027.5 403.432 1048.93 527.954 1048.93 527.954Z" fill="black"/>
<path d="M1053.65 527.954L1067.33 542.138C1067.33 542.138 1078.28 620.298 1083.75 627.609C1089.21 634.921 1102.13 664.004 1090 685.845C1090 685.845 1086.1 697.731 1088.45 702.709C1090.79 707.687 1070.85 732.601 1070.85 732.601C1070.85 732.601 1044.65 755.586 1039.17 759.039C1033.69 762.493 1004.77 790.075 995.004 790.456C985.235 790.837 982.041 802.722 982.041 802.722L926.911 804.639C926.911 804.639 896.435 803.08 889.835 807.296C889.835 807.296 893.371 761.696 859.348 731.804L902.74 716.477C902.74 716.477 919.168 709.546 924.247 702.305C927.443 697.865 931.976 694.517 937.211 692.729C937.211 692.729 949.326 684.298 949.715 679.701C950.104 675.104 964.528 669.467 964.528 669.467L956.361 601.148L960.663 487.725C960.663 487.725 974.345 392.69 1003.28 398.061C1032.21 403.432 1053.65 527.954 1053.65 527.954Z" fill="#E8F5FF"/>
<path opacity="0.1" d="M1002.78 642.532C1002.78 642.532 1043.05 632.137 1053.61 644.842C1064.17 657.547 1002.78 642.532 1002.78 642.532Z" fill="black"/>
<path opacity="0.1" d="M993.401 659.961C1007.08 669.352 1049.31 669.733 1049.31 669.733L993.401 659.961Z" fill="black"/>
<path opacity="0.1" d="M1014.12 706.901C1015.3 707.283 1043.15 736.412 1054.84 727.599C1066.53 718.787 1014.12 706.901 1014.12 706.901Z" fill="black"/>
<path opacity="0.1" d="M639.075 462.43C639.075 462.43 647.254 517.617 643.223 540.093C639.193 562.57 653.9 590.418 653.9 590.418L639.075 462.43Z" fill="black"/>
<path d="M458.011 484.872C448.583 492.114 441.7 509.254 436.715 528.093C428.018 560.953 425.178 599.057 425.178 599.057C425.178 599.057 350.107 582.194 355.576 574.536C359.017 569.72 354.397 533.429 350.543 507.117C348.245 491.571 346.195 479.501 346.195 479.501C346.195 479.501 483.82 464.936 458.011 484.872Z" fill="#FFCCD0"/>
<path opacity="0.1" d="M458.011 483.335C448.583 490.589 441.7 507.718 436.715 526.556C421.758 531.008 405.851 531.409 390.68 527.718C375.509 524.028 361.64 516.382 350.543 505.593C348.245 490.035 346.195 477.965 346.195 477.965C346.195 477.965 483.82 463.411 458.011 483.335Z" fill="black"/>
<path d="M498.362 442.055C498.37 462.145 491.126 481.589 477.913 496.947C464.699 512.306 446.368 522.587 426.163 525.972C405.958 529.358 385.183 525.628 367.514 515.445C349.845 505.261 336.422 489.279 329.62 470.328C322.818 451.377 323.075 430.678 330.347 411.896C337.619 393.113 351.437 377.457 369.354 367.699C387.271 357.941 408.133 354.71 428.248 358.577C448.362 362.445 466.432 373.162 479.259 388.832C491.62 403.926 498.359 422.701 498.362 442.055V442.055Z" fill="#FFCCD0"/>
<path opacity="0.1" d="M566.81 974.012H542.061L539.975 931.172L537.795 886.831C537.795 886.831 543.416 886.011 552.373 884.787L555.991 884.313H556.285C558.242 893.311 560.175 902.551 562.037 911.779C565.136 928.163 566.749 944.783 566.857 961.445C566.857 962.6 566.857 963.755 566.857 964.841C566.927 967.925 566.857 971.009 566.81 974.012Z" fill="black"/>
<path d="M562.06 974.011H251.691C253.035 971.02 253.931 969.207 253.931 969.207C253.931 969.207 278.761 862.737 291.383 817.691C291.387 817.653 291.387 817.614 291.383 817.575C292.96 811.456 294.864 805.423 297.087 799.499V799.499C297.231 799.097 297.416 798.71 297.641 798.344C303.887 788.388 311.712 777.658 300.764 762.331C289.816 747.004 293.693 679.562 293.693 679.562C293.693 679.562 306.986 622.077 321.058 591.422C323.193 586.674 326.224 582.364 329.991 578.717C331.215 577.543 332.523 576.455 333.903 575.46V575.46C334.953 574.687 336.047 573.974 337.18 573.323L337.403 573.185C343.314 569.9 349.879 567.903 356.648 567.329C361.457 566.836 366.311 566.968 371.085 567.721C393.901 571.002 412.167 576.488 426.686 582.737C466.036 599.681 477.951 622.389 478.187 622.862L478.281 623.058C479.86 626.674 502.959 679.527 511.279 704.187C513.435 710.609 514.614 715.125 514.143 716.361C511.786 722.483 532.126 799.118 532.126 799.118C532.126 799.118 541.554 836.079 550.982 879.404C551.395 881.206 551.784 883.007 552.161 884.832C553.846 892.698 555.52 900.714 557.134 908.718C560.262 925.214 561.875 941.952 561.954 958.731C562.127 963.959 562.162 969.053 562.06 974.011Z" fill="#FF748E"/>
<path opacity="0.1" d="M354.798 540.971C354.798 540.971 333.385 532.886 333.644 545.152C333.903 557.419 338.865 563.286 337.297 565.077C335.73 566.867 338.075 577.597 338.075 577.597C338.075 577.597 367.007 577.597 380.301 583.464C393.594 589.332 442.596 601.09 448.854 604.671C455.112 608.251 478.316 624.306 478.316 624.306L480.402 593.906C480.402 593.906 456.42 574.49 417.07 564.534C377.72 554.577 354.798 540.971 354.798 540.971Z" fill="black"/>
<path d="M354.798 539.435C354.798 539.435 333.385 531.35 333.644 543.616C333.903 555.883 338.865 561.75 337.297 563.54C335.73 565.331 338.075 576.061 338.075 576.061C338.075 576.061 367.007 576.061 380.301 581.94C393.594 587.819 442.596 599.566 448.854 603.135C455.112 606.704 478.316 622.77 478.316 622.77L480.426 592.462C480.426 592.462 456.443 573.046 417.093 563.09C377.743 553.134 354.798 539.435 354.798 539.435Z" fill="#FF748E"/>
<path opacity="0.1" d="M419.438 612.594C419.438 612.594 460.356 656.011 458.27 668.035C456.184 680.059 419.438 612.594 419.438 612.594Z" fill="black"/>
<path opacity="0.1" d="M352.971 769.435C352.971 769.435 322.979 796.52 314.14 798.056C305.301 799.592 320.916 804.697 331.075 800.62C341.234 796.543 362.894 785.813 362.894 785.813L352.971 769.435Z" fill="black"/>
<path d="M574.246 974.012H504.302C494.521 965.696 485.269 957.992 479.377 953.36C469.949 945.945 463.149 935.03 458.812 926.252C457.834 924.253 456.986 922.382 456.267 920.684C454.979 917.76 453.847 914.772 452.873 911.733L504.667 881.587C507.53 883.973 510.219 886.551 512.717 889.302L513.341 890.007C516.217 893.333 518.75 897.11 518.974 900.206C519.234 903.809 529.463 917.751 539.916 931.137C550.523 944.755 561.388 957.772 562.107 958.65C562.107 958.65 563.899 961.041 566.821 964.714C568.884 967.37 571.429 970.558 574.246 974.012Z" fill="#FFCCD0"/>
<path opacity="0.1" d="M479.259 388.832C476.772 394.33 474.545 400.036 474.215 406.157C473.284 423.829 474.793 463.342 454.829 472.213C444.941 476.579 434.358 466.992 423.516 466.761C415.715 466.599 408.561 471.451 403.8 477.514C399.039 483.578 396.081 490.774 392.628 497.635C389.485 503.862 385.864 509.847 381.797 515.538C380.582 517.279 379.243 518.935 377.791 520.493C365.617 515.458 354.777 507.767 346.097 498.005C337.416 488.243 331.123 476.667 327.698 464.161C324.273 451.654 323.806 438.546 326.333 425.836C328.86 413.126 334.314 401.148 342.279 390.817C350.244 380.485 360.511 372.072 372.296 366.218C384.081 360.364 397.075 357.224 410.286 357.037C423.497 356.85 436.577 359.621 448.53 365.139C460.483 370.657 470.993 378.776 479.259 388.878V388.832Z" fill="black"/>
<path d="M472.648 403.039C471.705 420.711 473.225 460.224 453.249 469.083C443.362 473.449 432.779 463.874 421.937 463.643C414.135 463.469 406.993 468.332 402.221 474.384C397.448 480.437 394.513 487.644 391.048 494.516C387.904 500.743 384.284 506.728 380.218 512.419C377.79 515.792 375.103 519.176 371.368 521.07C364.862 524.397 356.978 522.526 350.001 520.389C340.951 517.594 332.033 514.444 323.25 510.941C323.451 509.641 323.554 508.328 323.556 507.014C323.297 507.499 323.014 507.949 322.731 508.434L322.177 509.382C321.175 511.114 320.197 512.847 319.302 514.625C318.96 515.307 318.63 516.011 318.335 516.716C317.15 519.338 316.406 522.131 316.131 524.986C315.53 532.69 319.408 540.001 322.849 546.931C336.083 573.739 344.262 605.087 334.304 633.211C329.991 645.443 322.519 656.312 317.062 668.128C307.524 689.055 304.717 712.334 309.013 734.865C311.736 748.864 317.192 762.724 315.849 776.919C313.492 801.348 291.996 819.528 270.465 832.025C258.833 838.747 244.597 844.73 232.246 839.417C240.118 830.408 242.145 817.945 243.843 806.187C248.486 774.116 253.141 742.03 257.808 709.928C259.67 697.153 261.528 684.379 263.382 671.604C266.847 647.603 270.359 623.336 268.19 599.184C266.611 581.386 262.156 562.489 270.029 546.377C274.189 537.841 281.602 530.773 283.911 521.579C285.809 514.106 284.041 506.159 285.29 498.547C285.974 495.084 287.131 491.728 288.731 488.568C290.769 484.281 293.428 480.305 296.627 476.764C293.469 475.863 290.523 474.627 288.731 472.04C293.799 468.806 294.565 461.518 292.267 456.043C289.969 450.568 285.373 446.398 281.236 442.078C277.1 437.759 273.116 432.723 272.598 426.832C271.596 415.617 283.027 406.931 285.043 395.866C287.082 384.605 279.021 373.655 279.669 362.255C280.423 348.476 293.339 338.462 306.091 332.652C325.333 323.922 346.589 320.335 367.702 322.257C384.885 323.851 401.513 329.06 418.649 331.081C428.984 332.236 439.461 332.352 449.726 334.13C459.99 335.909 470.279 339.663 477.503 347.043C496.547 366.505 473.732 382.526 472.648 403.039Z" fill="#FFE0D0"/>
<path opacity="0.1" d="M456.714 926.263C450.704 923.71 439.767 925.235 420.994 919.633C402.221 914.031 398.603 888.713 398.603 888.713V888.632C398.379 888.055 396.634 884.29 384.826 871.099C371.78 856.534 343.579 782.971 343.579 782.971C343.579 782.971 318.571 756.648 319.361 746.946C320.15 737.244 314.918 711.429 315.436 682.554C315.955 653.678 371.733 634.528 371.733 634.528C479.129 615.874 453.839 737.221 450.975 746.415C448.111 755.609 462.972 780.442 462.972 780.442C460.874 791.253 471.575 807.989 471.575 807.989C471.575 807.989 474.168 822.796 474.698 828.421C474.727 828.681 474.787 828.937 474.875 829.184C476.595 834.485 490.62 839.29 496.323 842.212C502.322 845.284 521.614 872.104 521.614 872.104C525.774 891.797 462.701 928.85 456.714 926.263Z" fill="black"/>
<path d="M459.837 921.643C453.839 919.079 442.891 920.615 424.129 915.001C405.367 909.388 401.737 884.093 401.737 884.093V884.012C401.525 883.423 399.769 879.669 387.961 866.479C374.915 851.914 346.714 778.339 346.714 778.339C346.714 778.339 321.706 752.028 322.484 742.326C323.261 732.624 318.053 706.809 318.571 677.956C319.09 649.104 374.832 629.965 374.832 629.965C482.229 611.312 456.938 732.658 454.074 741.852C451.211 751.046 466.072 775.879 466.072 775.879C463.974 786.69 474.675 803.426 474.675 803.426C474.675 803.426 477.267 818.234 477.809 823.859C477.829 824.119 477.885 824.375 477.974 824.621C479.695 829.923 493.719 834.728 499.435 837.65C505.422 840.711 524.725 867.542 524.725 867.542C528.909 887.2 465.836 924.253 459.837 921.643Z" fill="#FF748E"/>
<path opacity="0.1" d="M376.954 693.318C376.954 693.318 423.87 741.829 436.114 741.829C448.359 741.829 376.954 693.318 376.954 693.318Z" fill="black"/>
<path d="M459.837 921.643C453.839 919.079 442.89 920.615 424.129 915.002C405.367 909.388 401.737 884.093 401.737 884.093V884.012C414.17 875.927 445.66 853.093 458.069 844.742C466.802 838.886 473.932 830.281 478.104 824.575C479.825 829.877 493.849 834.682 499.564 837.604C505.551 840.665 524.855 867.496 524.855 867.496C528.909 887.2 465.836 924.253 459.837 921.643Z" fill="#FF748E"/>
<path opacity="0.1" d="M322.189 509.393C321.187 511.125 320.209 512.858 319.313 514.637C318.972 515.318 318.642 516.023 318.347 516.727C312.172 510.629 297.134 496.133 288.743 491.64C290.783 487.354 293.443 483.379 296.639 479.836C296.639 479.836 316.638 490.196 322.189 509.393Z" fill="black"/>
<path d="M322.743 508.446C318.111 487.898 296.639 476.775 296.639 476.775C293.44 480.316 290.78 484.292 288.743 488.58C297.594 493.327 313.904 509.243 319.313 514.637L322.743 508.446Z" fill="#FF748E"/>
</g>
<defs>
<filter id="filter0_d_98_2" x="-85" y="0" width="1450" height="1074" filterUnits="userSpaceOnUse" color-interpolation-filters="sRGB">
<feFlood flood-opacity="0" result="BackgroundImageFix"/>
<feColorMatrix in="SourceAlpha" type="matrix" values="0 0 0 0 0 0 0 0 0 0 0 0 0 0 0 0 0 0 127 0" result="hardAlpha"/>
<feOffset dy="15"/>
<feGaussianBlur stdDeviation="42.5"/>
<feComposite in2="hardAlpha" operator="out"/>
<feColorMatrix type="matrix" values="0 0 0 0 0 0 0 0 0 0 0 0 0 0 0 0 0 0 0.2 0"/>
<feBlend mode="normal" in2="BackgroundImageFix" result="effect1_dropShadow_98_2"/>
<feBlend mode="normal" in="SourceGraphic" in2="effect1_dropShadow_98_2" result="shape"/>
</filter>
<linearGradient id="paint0_linear_98_2" x1="860.338" y1="180.2" x2="860.338" y2="158.971" gradientUnits="userSpaceOnUse">
<stop stop-color="#808080" stop-opacity="0.25"/>
<stop offset="0.54" stop-color="#808080" stop-opacity="0.12"/>
<stop offset="1" stop-color="#808080" stop-opacity="0.1"/>
</linearGradient>
<linearGradient id="paint1_linear_98_2" x1="540661" y1="760656" x2="540661" y2="53099.7" gradientUnits="userSpaceOnUse">
<stop stop-color="#808080" stop-opacity="0.25"/>
<stop offset="0.54" stop-color="#808080" stop-opacity="0.12"/>
<stop offset="1" stop-color="#808080" stop-opacity="0.1"/>
</linearGradient>
<clipPath id="clip0_98_2">
<rect width="1280" height="904" fill="white" transform="translate(0 70)"/>
</clipPath>
</defs>
</svg>
