<svg width="628" height="466" viewBox="0 0 628 466" fill="none" xmlns="http://www.w3.org/2000/svg">
<g clip-path="url(#clip0_127_176)">
<path opacity="0.1" d="M208.784 465.738C239.367 465.738 264.16 461.566 264.16 456.421C264.16 451.275 239.367 447.104 208.784 447.104C178.201 447.104 153.408 451.275 153.408 456.421C153.408 461.566 178.201 465.738 208.784 465.738Z" fill="#6C63FF"/>
<path opacity="0.1" d="M509.798 466C547.961 466 578.899 461.829 578.899 456.683C578.899 451.537 547.961 447.366 509.798 447.366C471.635 447.366 440.698 451.537 440.698 456.683C440.698 461.829 471.635 466 509.798 466Z" fill="#6C63FF"/>
<path opacity="0.1" d="M7.86567 201.346H65.543V283.7H12.0882C11.9461 284.545 11.8097 285.396 11.6619 286.248H65.543V352.664C65.4464 352.635 65.3611 352.599 65.2702 352.563C63.7471 351.932 62.2354 351.265 60.7237 350.551L59.7576 350.093C58.2421 349.342 56.7267 348.549 55.2112 347.711C54.6827 347.42 54.1541 347.116 53.6313 346.806C45.218 341.869 37.575 335.613 30.9673 328.255C30.7741 328.059 30.5922 327.851 30.399 327.66C29.4783 326.612 28.5747 325.553 27.6995 324.469L26.7334 323.278C25.6991 321.951 24.6989 320.587 23.7271 319.206C23.585 319.004 23.4486 318.801 23.3008 318.611C19.3485 312.87 16.0669 306.654 13.526 300.096C13.4464 299.899 13.3782 299.685 13.3044 299.5C12.5239 297.397 11.8324 295.273 11.23 293.13C10.9686 292.231 10.7186 291.344 10.5026 290.409C10.423 290.135 10.3548 289.868 10.2923 289.6C7.06436 276.401 6.68359 262.69 6.68359 249.075C6.68359 247.485 6.68359 245.889 6.68359 244.312C6.68359 238.805 6.74611 233.262 6.83704 227.725C6.83704 226.291 6.89387 224.862 6.92228 223.421C7.00184 219.766 7.11551 216.11 7.26327 212.455C7.29736 211.437 7.34283 210.425 7.39398 209.413C7.39398 208.829 7.42239 208.246 7.47922 207.662C7.61562 205.543 7.72928 203.441 7.86567 201.346Z" fill="#6C63FF"/>
<path opacity="0.1" d="M65.5428 109.651H33.9053C39.0481 101.218 44.6673 93.1149 50.7328 85.3844C55.4327 79.3357 60.394 73.4418 65.5428 67.7622V109.651Z" fill="#6C63FF"/>
<path opacity="0.1" d="M65.5423 112.199V198.798H8.04688C8.04688 198.547 8.08666 198.291 8.1037 198.041C8.15485 197.357 8.206 196.672 8.26283 195.993C8.32534 195.196 8.39354 194.392 8.46742 193.612C8.5413 192.832 8.62086 191.88 8.70611 191.016C8.79135 190.153 8.87092 189.278 8.96753 188.415C9.06414 187.551 9.14939 186.688 9.25168 185.831C9.35398 184.974 9.44491 184.104 9.55289 183.247C9.63813 182.533 9.72906 181.824 9.81999 181.11C9.9507 180.104 10.0871 179.092 10.2348 178.091C10.2348 177.943 10.2746 177.788 10.2974 177.645C11.3346 170.323 12.748 163.065 14.5312 155.903C16.3979 148.39 18.7815 141.028 21.6635 133.875C24.7264 126.393 28.3127 119.158 32.3931 112.228L65.5423 112.199Z" fill="#6C63FF"/>
<path opacity="0.1" d="M79.3125 201.339V283.699H202.504V201.339H79.3125ZM79.3125 286.242V356.969C80.0172 357.123 80.7162 357.272 81.4095 357.397C82.3529 357.588 83.2906 357.76 84.2511 357.909C84.4329 357.939 84.6205 357.969 84.8194 357.987C85.1945 358.052 85.5809 358.106 85.956 358.159C86.9051 358.296 87.8484 358.409 88.7975 358.499C89.2465 358.546 89.7011 358.588 90.1558 358.624L91.2526 358.713C91.8493 358.76 92.4403 358.796 93.0257 358.814C93.3894 358.814 93.7531 358.85 94.1282 358.862C94.4124 358.862 94.6965 358.862 94.992 358.862C95.2876 358.862 95.7081 358.862 96.0661 358.862C96.5549 358.862 97.0436 358.862 97.5267 358.862H98.1802C98.669 358.862 99.1577 358.862 99.6408 358.814H99.6749C100.01 358.814 100.351 358.814 100.692 358.766C100.787 358.772 100.882 358.772 100.976 358.766C101.26 358.766 101.545 358.766 101.817 358.725H102.016L103.92 358.57C104.545 358.51 105.176 358.433 105.813 358.362L107.108 358.201C112.38 357.427 117.593 356.265 122.708 354.724C134.199 351.366 145.441 346.669 156.926 343.228C171.776 338.793 188.183 336.614 202.532 342.037V286.242H79.3125ZM202.504 109.65V0.00582992C189.017 -0.147247 175.566 1.50531 162.478 4.92338C131.284 13.1332 103.295 30.9399 79.3125 53.6821V109.645H85.4957V112.187H79.3125V198.797H202.504V112.193H110.882V109.65H202.504ZM360.737 72.6141C353.02 72.3283 345.348 69.7683 338.409 65.8152C325.139 58.2543 314.54 46.5796 302.696 36.7267C278.089 16.2052 247.571 3.82199 216.263 0.750011V109.65H392.125L392.562 109.168L360.737 72.6141ZM376.758 69.6373L393.744 89.1646V64.5174C388.056 65.2556 383.072 67.0119 376.781 69.6135L376.758 69.6373ZM393.744 374.531V286.242H357.549C357.453 285.867 357.356 285.486 357.242 285.104C357.35 285.486 357.441 285.867 357.543 286.242H216.285V350.092C217.627 351.134 218.951 352.23 220.264 353.343C221.679 354.534 223.077 355.79 224.48 357.022L225.895 358.249C226.572 358.844 227.254 359.439 227.941 359.999C229.305 361.158 230.683 362.301 232.073 363.428C232.761 364.023 233.465 364.559 234.164 365.119C245.262 374.007 256.968 382.028 269.189 389.117C271.928 390.705 274.692 392.255 277.481 393.767C279.339 394.761 281.209 395.749 283.084 396.708C285.903 398.148 288.744 399.538 291.609 400.875C318.016 413.293 345.939 421.814 374.581 426.195C380.942 427.18 387.328 427.953 393.739 428.517V374.525H394.307L393.744 374.531ZM216.285 112.193V198.797H393.767V112.193H216.285ZM216.285 201.339V283.699H393.767V201.339H216.285ZM407.543 64.4102V91.9032L429.224 66.9821C422.04 65.7676 414.813 64.9004 407.543 64.3805V64.4102ZM407.543 201.369V283.699H580.166V201.339L407.543 201.369ZM579.535 381.068L580.143 286.242H407.543V429.464C418.662 429.953 429.798 429.814 440.902 429.047H441.096C446.4 428.698 451.679 428.19 456.934 427.523H457.054C485.089 424.105 512.501 416.442 538.435 404.775L579.535 381.068ZM613.451 214.901C612.803 213.3 612.127 211.71 611.44 210.139C610.155 207.162 608.797 204.269 607.399 201.375H593.93V283.699H627.983C627.966 260.386 622.334 236.572 613.468 214.872L613.451 214.901ZM593.93 286.271V367.834C603.523 358.201 611.627 347.181 617.464 334.584C624.482 319.414 627.693 302.989 627.954 286.259L593.93 286.271ZM593.93 177.371V198.803H606.137C602.444 191.425 598.375 184.261 593.947 177.341L593.93 177.371ZM476.859 80.5679C475.961 80.2107 475.063 79.8475 474.16 79.4963C464.63 75.8094 454.891 72.7435 445 70.316L411.822 108.46L411.186 109.168L411.612 109.656H529.694C513.249 97.7974 495.519 88.0231 476.876 80.5381L476.859 80.5679ZM533.155 112.222H409.964L407.543 114.544V198.797H428.763H428.798H580.188V157.986C566.494 140.636 550.687 125.24 533.172 112.193L533.155 112.222Z" fill="#6C63FF"/>
<path opacity="0.1" d="M65.5423 155.879V198.797H8.04688C8.04688 198.547 8.08666 198.291 8.1037 198.041C8.15485 197.357 8.206 196.672 8.26283 195.993C8.32534 195.195 8.39354 194.392 8.46742 193.612C8.5413 192.832 8.62086 191.879 8.70611 191.016C8.79135 190.153 8.87092 189.278 8.96753 188.414C9.06414 187.551 9.14939 186.688 9.25168 185.831C9.35398 184.973 9.44491 184.104 9.55289 183.247C9.63813 182.532 9.72906 181.824 9.81999 181.11C9.9507 180.103 10.0871 179.091 10.2348 178.091C10.2348 177.942 10.2746 177.788 10.2974 177.645C11.3346 170.323 12.748 163.065 14.5312 155.903L65.5423 155.879Z" fill="#6C63FF"/>
<path opacity="0.1" d="M7.86567 201.346H65.543V283.7H12.0882C11.9461 284.545 11.8097 285.396 11.6619 286.248H65.543V352.664C65.4464 352.635 65.3611 352.599 65.2702 352.563C63.7471 351.932 62.2354 351.265 60.7237 350.551L59.7576 350.093C58.2421 349.342 56.7267 348.549 55.2112 347.711C54.6827 347.42 54.1541 347.116 53.6313 346.806C45.218 341.869 37.575 335.613 30.9673 328.255C30.7741 328.059 30.5922 327.851 30.399 327.66C29.4783 326.612 28.5747 325.553 27.6995 324.469L26.7334 323.278C25.6991 321.951 24.6989 320.587 23.7271 319.206C23.585 319.004 23.4486 318.801 23.3008 318.611C19.3485 312.87 16.0669 306.654 13.526 300.096C13.4464 299.899 13.3782 299.685 13.3044 299.5C12.5239 297.397 11.8324 295.273 11.23 293.13C10.9686 292.231 10.7186 291.344 10.5026 290.409C10.423 290.135 10.3548 289.868 10.2923 289.6C7.06436 276.401 6.68359 262.69 6.68359 249.075C6.68359 247.485 6.68359 245.889 6.68359 244.312C6.68359 238.805 6.74611 233.262 6.83704 227.725C6.83704 226.291 6.89387 224.862 6.92228 223.421C7.00184 219.766 7.11551 216.11 7.26327 212.455C7.29736 211.437 7.34283 210.425 7.39398 209.413C7.39398 208.829 7.42239 208.246 7.47922 207.662C7.61562 205.543 7.72928 203.441 7.86567 201.346Z" fill="#6C63FF"/>
<path opacity="0.1" d="M122.68 124.594V198.798H79.3125V124.594H85.4957V99.4702H110.876V124.594H122.68Z" fill="#6C63FF"/>
<path opacity="0.1" d="M122.68 201.339H79.3184V283.693H122.68V201.339Z" fill="#6C63FF"/>
<path opacity="0.1" d="M79.3125 286.248H122.68V354.712C117.564 356.252 112.351 357.412 107.08 358.183L105.784 358.35C105.148 358.427 104.517 358.493 103.892 358.558C103.267 358.624 102.619 358.671 101.988 358.713H101.789C101.516 358.713 101.221 358.749 100.954 358.754H100.664C100.323 358.754 99.9818 358.79 99.6408 358.802C99.1577 358.832 98.6747 358.838 98.1802 358.844C97.97 358.844 97.7711 358.844 97.5608 358.844C97.072 358.844 96.589 358.844 96.1002 358.844H95.0261C94.7363 358.844 94.4578 358.844 94.1566 358.844L93.0598 358.802C92.4915 358.802 91.8777 358.737 91.2867 358.695L90.1955 358.612L88.8373 358.481C87.8825 358.391 86.9335 358.278 85.9958 358.141L84.8592 357.975L84.2909 357.891C83.3418 357.736 82.4041 357.57 81.4493 357.379C80.7503 357.254 80.057 357.099 79.3523 356.951L79.3125 286.248Z" fill="#6C63FF"/>
<path opacity="0.1" d="M393.768 115.83H358.01V198.791H393.768V115.83Z" fill="#6C63FF"/>
<path opacity="0.1" d="M393.773 201.339V283.699H216.285V248.175H310.823V269.131H358.009V201.339H393.773Z" fill="#6C63FF"/>
<path opacity="0.1" d="M394.335 374.549H393.767V428.576C387.364 428.009 380.98 427.237 374.615 426.26C345.959 421.866 318.024 413.326 291.608 400.887C283.982 397.291 276.51 393.366 269.194 389.111C256.974 382.019 245.266 373.998 234.164 365.113C231.376 362.874 228.623 360.584 225.907 358.242C224.025 356.617 222.156 354.95 220.263 353.331C218.951 352.218 217.626 351.122 216.285 350.074V286.247H357.537C357.441 285.866 357.344 285.485 357.242 285.11C357.35 285.485 357.452 285.866 357.549 286.247H393.767V374.513C393.96 374.519 394.148 374.537 394.335 374.549Z" fill="#6C63FF"/>
<path opacity="0.1" d="M487.026 109.651H463.726V102.066H474.171V79.4727C475.077 79.818 475.978 80.1732 476.876 80.5383V102.066H487.026V109.651Z" fill="#6C63FF"/>
<path opacity="0.1" d="M543.163 198.798H428.775C428.775 198.798 428.775 198.798 428.815 198.827L428.764 198.798H407.543V115.836H413.556V177.157H441.033V140.841H463.731V112.199H487.032V140.865H509.73V177.181H543.163V198.798Z" fill="#6C63FF"/>
<path opacity="0.1" d="M407.543 201.339V283.699H543.163V201.339H407.543ZM579.978 380.645L580.166 315.455H543.163V286.283H407.543V429.464C418.662 429.953 429.798 429.814 440.902 429.047H441.096C446.4 428.697 451.679 428.189 456.934 427.523H457.054C485.089 424.105 512.501 416.442 538.435 404.775" fill="#6C63FF"/>
<path opacity="0.1" d="M596.34 286.248H627.978C627.699 302.971 624.494 319.396 617.481 334.566C611.644 347.169 603.535 358.189 593.953 367.816V315.425H596.34V286.248Z" fill="#6C63FF"/>
<path opacity="0.1" d="M627.994 283.699H596.34V214.872H613.469C622.334 236.572 627.966 260.386 627.994 283.699Z" fill="#6C63FF"/>
<path opacity="0.1" d="M393.773 138.894H374.615V164.905H393.773V138.894Z" fill="#6C63FF"/>
<path opacity="0.1" d="M393.773 192.808H374.615V198.797H393.773V192.808Z" fill="#6C63FF"/>
<path opacity="0.1" d="M393.773 201.339H374.615V218.813H393.773V201.339Z" fill="#6C63FF"/>
<path opacity="0.1" d="M393.773 246.723H374.615V272.733H393.773V246.723Z" fill="#6C63FF"/>
<path opacity="0.1" d="M393.773 300.637H374.615V326.648H393.773V300.637Z" fill="#6C63FF"/>
<path opacity="0.1" d="M393.767 374.513C393.96 374.513 394.148 374.513 394.335 374.549H393.767V380.592H374.615V354.551H393.767V374.513Z" fill="#6C63FF"/>
<path opacity="0.1" d="M393.767 408.454V428.547C387.364 427.979 380.98 427.207 374.615 426.231V408.454H393.767Z" fill="#6C63FF"/>
<path opacity="0.1" d="M298.388 281.789H216.285V283.7H298.388V281.789Z" fill="#6C63FF"/>
<path opacity="0.1" d="M298.388 286.242H216.285V293.564H298.388V286.242Z" fill="#6C63FF"/>
<path opacity="0.1" d="M298.388 317.569H216.285V329.345H298.388V317.569Z" fill="#6C63FF"/>
<path opacity="0.1" d="M298.383 353.349V365.125H234.164C231.376 362.894 228.621 360.604 225.901 358.255C224.02 356.629 222.156 354.963 220.258 353.349H298.383Z" fill="#6C63FF"/>
<path opacity="0.1" d="M298.383 389.123V400.887H291.603C283.984 397.287 276.514 393.36 269.194 389.105L298.383 389.123Z" fill="#6C63FF"/>
<path opacity="0.1" d="M457.071 209.323H440.908V226.255H457.071V209.323Z" fill="#6C63FF"/>
<path opacity="0.1" d="M107.12 130.434H90.957V147.366H107.12V130.434Z" fill="#6C63FF"/>
<path opacity="0.1" d="M107.12 169.763H90.957V186.694H107.12V169.763Z" fill="#6C63FF"/>
<path opacity="0.1" d="M107.12 209.091H90.957V226.022H107.12V209.091Z" fill="#6C63FF"/>
<path opacity="0.1" d="M107.12 248.414H90.957V265.345H107.12V248.414Z" fill="#6C63FF"/>
<path opacity="0.1" d="M107.12 287.742H90.957V304.674H107.12V287.742Z" fill="#6C63FF"/>
<path opacity="0.1" d="M107.12 327.07H90.957V344.002H107.12V327.07Z" fill="#6C63FF"/>
<path opacity="0.1" d="M518.772 209.323H502.609V226.255H518.772V209.323Z" fill="#6C63FF"/>
<path opacity="0.1" d="M457.071 251.086H440.908V268.018H457.071V251.086Z" fill="#6C63FF"/>
<path opacity="0.1" d="M518.772 251.086H502.609V268.018H518.772V251.086Z" fill="#6C63FF"/>
<path opacity="0.1" d="M457.071 292.844H440.908V309.776H457.071V292.844Z" fill="#6C63FF"/>
<path opacity="0.1" d="M518.772 292.844H502.609V309.776H518.772V292.844Z" fill="#6C63FF"/>
<path opacity="0.1" d="M457.071 334.607H440.908V351.539H457.071V334.607Z" fill="#6C63FF"/>
<path opacity="0.1" d="M518.772 334.607H502.609V351.539H518.772V334.607Z" fill="#6C63FF"/>
<path opacity="0.1" d="M457.071 376.371H440.908V393.303H457.071V376.371Z" fill="#6C63FF"/>
<path opacity="0.1" d="M518.772 376.371H502.609V393.303H518.772V376.371Z" fill="#6C63FF"/>
<path opacity="0.1" d="M440.908 429.047V418.128H457.065V427.493L440.908 429.047Z" fill="#6C63FF"/>
<path opacity="0.1" d="M10.2295 177.633V187.319H65.5426V177.633H10.2295ZM15.7421 186.712H11.2297V178.228H15.7762L15.7421 186.712ZM21.2489 186.712H16.7025V178.228H21.2489V186.712ZM26.7444 186.712H22.198V178.228H26.7444V186.712ZM32.2513 186.712H27.7106V178.228H32.257L32.2513 186.712ZM37.7525 186.712H33.2061V178.228H37.7525V186.712ZM43.2594 186.712H38.713V178.228H43.2594V186.712ZM48.7663 186.712H44.2198V178.228H48.7663V186.712ZM54.2675 186.712H49.721V178.228H54.2675V186.712ZM59.7687 186.712H55.2222V178.228H59.7687V186.712ZM65.2699 186.712H60.7234V178.228H65.2699V186.712Z" fill="#6C63FF"/>
<path opacity="0.1" d="M10.2295 205.816V215.503H65.5426V205.816H10.2295ZM15.7421 214.889H11.2297V206.43H15.7762L15.7421 214.889ZM21.2489 214.889H16.7025V206.43H21.2489V214.889ZM26.7444 214.889H22.198V206.43H26.7444V214.889ZM32.2513 214.889H27.7106V206.43H32.257L32.2513 214.889ZM37.7525 214.889H33.2061V206.43H37.7525V214.889ZM43.2594 214.889H38.713V206.43H43.2594V214.889ZM48.7663 214.889H44.2198V206.43H48.7663V214.889ZM54.2675 214.889H49.721V206.43H54.2675V214.889ZM59.7687 214.889H55.2222V206.43H59.7687V214.889ZM65.2699 214.889H60.7234V206.43H65.2699V214.889Z" fill="#6C63FF"/>
<path opacity="0.1" d="M10.2295 234.012V243.716H65.5426V234.012H10.2295ZM15.7421 243.085H11.2297V234.619H15.7762L15.7421 243.085ZM21.2489 243.085H16.7025V234.619H21.2489V243.085ZM26.7444 243.085H22.198V234.619H26.7444V243.085ZM32.2513 243.085H27.7106V234.619H32.257L32.2513 243.085ZM37.7525 243.085H33.2061V234.619H37.7525V243.085ZM43.2594 243.085H38.713V234.619H43.2594V243.085ZM48.7663 243.085H44.2198V234.619H48.7663V243.085ZM54.2675 243.085H49.721V234.619H54.2675V243.085ZM59.7687 243.085H55.2222V234.619H59.7687V243.085ZM65.2699 243.085H60.7234V234.619H65.2699V243.085Z" fill="#6C63FF"/>
<path opacity="0.1" d="M10.2295 262.208V271.882H65.5426V262.208H10.2295ZM15.7421 271.281H11.2297V262.809H15.7762L15.7421 271.281ZM21.2489 271.281H16.7025V262.809H21.2489V271.281ZM26.7444 271.281H22.198V262.809H26.7444V271.281ZM32.2513 271.281H27.7106V262.809H32.257L32.2513 271.281ZM37.7525 271.281H33.2061V262.809H37.7525V271.281ZM43.2594 271.281H38.713V262.809H43.2594V271.281ZM48.7663 271.281H44.2198V262.809H48.7663V271.281ZM54.2675 271.281H49.721V262.809H54.2675V271.281ZM59.7687 271.281H55.2222V262.809H59.7687V271.281ZM65.2699 271.281H60.7234V262.809H65.2699V271.281Z" fill="#6C63FF"/>
<path opacity="0.1" d="M10.4678 290.397C10.6894 291.308 10.9395 292.219 11.2009 293.118V291.004H15.7473V299.47H13.315C13.3889 299.667 13.4627 299.881 13.5366 300.065H65.5422V290.397H10.4678ZM21.2656 299.47H16.7191V291.004H21.2656V299.47ZM26.7611 299.47H22.2146V291.004H26.7611V299.47ZM32.268 299.47H27.7102V291.004H32.2566L32.268 299.47ZM37.7692 299.47H33.2227V291.004H37.7692V299.47ZM43.276 299.47H38.7296V291.004H43.276V299.47ZM48.7829 299.47H44.2365V291.004H48.7829V299.47ZM54.2841 299.47H49.7377V291.004H54.2841V299.47ZM59.7853 299.47H55.2389V291.004H59.7853V299.47ZM65.2865 299.47H60.7401V291.004H65.2865V299.47Z" fill="#6C63FF"/>
<path opacity="0.1" d="M23.3115 318.593C23.4536 318.783 23.59 318.998 23.7378 319.188H26.7441V323.254C27.068 323.659 27.3863 324.064 27.7159 324.445V319.164H32.2623V327.66H30.421C30.6029 327.856 30.7791 328.065 30.9893 328.255H65.5593V318.593H23.3115ZM37.7522 327.66H33.2057V319.2H37.7522V327.66ZM43.259 327.66H38.7126V319.2H43.259V327.66ZM48.7659 327.66H44.2195V319.2H48.7659V327.66ZM54.2671 327.66H49.7207V319.2H54.2671V327.66ZM59.7683 327.66H55.2219V319.2H59.7683V327.66ZM65.2695 327.66H60.7231V319.2H65.2695V327.66Z" fill="#6C63FF"/>
<path opacity="0.1" d="M53.6533 346.782C54.1705 347.092 54.699 347.378 55.2332 347.687V347.389H59.7796V350.069L60.7458 350.539V347.389H65.2922V352.539C65.3794 352.585 65.4708 352.62 65.565 352.646V346.782H53.6533Z" fill="#6C63FF"/>
<path opacity="0.1" d="M428.775 198.798H428.809H428.775ZM393.767 374.508H394.336H393.767ZM357.242 285.105C357.35 285.486 357.441 285.867 357.544 286.242C357.453 285.867 357.356 285.486 357.242 285.105ZM428.775 198.78H428.809H428.775ZM85.5186 109.633V112.175H110.905V109.633H85.5186ZM393.767 374.508H394.336H393.767ZM357.242 285.105C357.35 285.486 357.441 285.867 357.544 286.242C357.453 285.867 357.356 285.486 357.242 285.105ZM428.775 198.78H428.809H428.775ZM393.767 374.49H394.336H393.767ZM357.242 285.105C357.35 285.486 357.441 285.867 357.544 286.242C357.453 285.867 357.356 285.486 357.242 285.105Z" fill="#6C63FF"/>
<path d="M262.329 226.034C262.329 226.034 260.09 225.707 260.09 222.29C260.09 218.872 258.488 212.49 258.488 212.49C258.488 212.461 257.101 201.375 255.186 199.613C253.271 197.851 250.81 187.504 250.81 187.504C250.81 187.504 250.389 181.89 249.531 180.681C248.673 179.473 247.514 176.514 245.803 172.293C244.092 168.072 236.96 165.149 236.96 165.149C236.96 165.149 224.065 157.314 220.411 154.76C220.079 154.55 219.769 154.305 219.485 154.027C218.848 153.152 216.075 153.134 216.075 153.134C215.785 151.217 215.507 149.015 215.416 147.02C215.416 146.806 215.416 146.592 215.387 146.377C219.462 143.854 222.531 139.876 224.031 135.173C224.099 134.947 224.156 134.709 224.219 134.482C224.463 134.398 224.688 134.261 224.878 134.081C225.069 133.901 225.222 133.68 225.327 133.435C225.657 132.667 225.662 131.768 226.071 131.053C226.549 130.208 227.458 129.755 228.174 129.118C229.981 127.511 230.447 124.802 230.362 122.337C230.305 120.343 229.998 118.331 230.118 116.348L230.152 115.848C230.186 115.55 230.226 115.253 230.277 114.967C230.555 113.49 231.163 112.097 231.504 110.633C231.845 109.168 231.88 107.519 231.084 106.257C229.919 104.406 227.492 104.036 225.361 103.846C222.946 103.632 220.786 103.911 219.24 101.81C218.517 100.711 217.703 99.6815 216.808 98.7319C216.49 98.4223 213.398 96.4458 213.398 96.3148C210.381 94.8508 206.961 94.576 203.765 95.5408C202.163 96.029 200.651 96.8268 199.026 97.2257C195.519 98.0949 191.484 97.1542 188.506 99.2558C186.847 100.446 185.852 102.34 184.92 104.185C184.163 105.705 183.394 107.223 182.613 108.74C181.357 111.234 180.079 113.77 179.55 116.533C179.439 117.134 179.37 117.743 179.345 118.354V118.384C179.345 118.604 179.345 118.825 179.345 119.045V119.325C179.345 119.533 179.345 119.736 179.379 119.92C179.414 120.105 179.408 120.164 179.425 120.289C179.442 120.414 179.47 120.694 179.505 120.885C179.539 121.075 179.607 121.409 179.675 121.671C179.703 121.784 179.743 121.891 179.777 121.998C179.834 122.2 179.902 122.397 179.976 122.593C180.016 122.694 180.056 122.802 180.101 122.903C180.186 123.111 180.289 123.314 180.391 123.498C180.437 123.582 180.471 123.659 180.516 123.736C180.675 124.013 180.849 124.28 181.039 124.534C182.255 126.124 184.045 127.136 185.369 128.624C185.369 128.684 185.369 128.743 185.369 128.797C185.369 128.963 185.369 129.124 185.369 129.291C185.44 132.61 186.283 135.861 187.826 138.761C189.369 141.661 191.565 144.123 194.224 145.931C194.224 146.157 194.252 146.389 194.263 146.615C194.374 148.383 194.353 150.156 194.201 151.92C193.969 151.634 193.68 151.407 193.353 151.255C193.027 151.102 192.672 151.028 192.314 151.039C192.07 151.026 191.825 151.048 191.587 151.104L191.536 151.063V151.116C190.285 151.438 188.745 152.801 187.273 156.677C187.273 156.677 182.795 161.963 179.385 161.743C175.975 161.523 167.343 167.244 167.343 167.244C167.343 167.244 158.921 172.971 157.113 178.806C156.103 182.114 154.892 185.351 153.488 188.498L143.076 210.972L141.155 228.803C141.155 228.803 142.218 236.733 142.008 237.941C141.797 239.15 146.378 250.051 146.378 250.051C146.378 250.051 161.512 277.907 167.695 279.336L168.138 279.008C168.403 279.153 168.684 279.263 168.974 279.336L170.247 278.395C170.323 279.443 170.291 280.497 170.15 281.538C169.298 284.289 170.468 302.238 171.957 305.757C173.446 309.275 172.918 355.409 172.918 355.409L172.708 359.481C172.708 359.481 172.708 359.612 172.759 359.838L172.708 360.802L172.861 360.886C173.02 362.177 172.968 363.488 172.708 364.762C172.173 366.548 171.957 371.596 171.957 371.596C171.957 371.596 167.701 400.101 169.718 405.828C171.736 411.556 173.452 417.831 173.452 417.831C173.452 417.831 175.583 424.975 173.554 426.195C171.526 427.416 165.757 429.464 166.945 432.44C168.025 435.191 172.122 442.561 172.73 443.639L172.679 444.204L171.844 453.688C171.979 454.94 172.303 456.162 172.804 457.308C173.719 459.374 175.498 461.517 178.879 461.285C179.448 461.243 180.107 461.172 180.743 461.082C186.932 460.213 194.553 457.32 194.553 457.32C194.158 457.056 193.795 456.742 193.473 456.385C193.169 456.076 192.928 455.706 192.765 455.297C192.602 454.887 192.52 454.447 192.524 454.004C192.615 452.277 189.529 444.049 188.762 442.025C188.643 441.734 188.58 441.567 188.58 441.567C188.58 441.567 195.616 433.863 194.445 427.035C194.445 427.035 186.659 422.272 189.223 419.658C191.786 417.045 196.366 409.537 196.366 409.537C196.366 409.537 196.576 381.467 196.366 377.276C196.147 374.367 196.279 371.44 196.758 368.566C196.844 368.131 196.946 367.708 197.054 367.292C200.598 367.846 204.177 368.131 207.761 368.143C209.068 368.143 210.398 368.143 211.739 368.06C211.739 368.457 211.756 368.885 211.79 369.346C212.085 376.299 212.637 388.492 213.086 393.023C213.722 399.518 217.24 417.021 217.24 417.021C217.24 417.021 210.528 421.534 218.411 432.655C218.411 432.655 218.411 436.685 217.888 437.269C217.33 439.176 216.88 441.116 216.541 443.079C216.211 445.175 216.075 447.294 216.609 448.396C217.888 451.027 225.56 450.813 225.56 450.813L225.748 450.777C227.196 450.62 228.66 450.766 230.054 451.207C231.448 451.647 232.745 452.373 233.869 453.343C236.784 455.796 247.849 454.718 253.839 453.938C256.186 453.629 257.754 453.343 257.754 453.343C257.831 453.065 257.857 452.774 257.834 452.486C257.772 450.944 256.618 447.562 248.798 444.544C248.798 444.544 241.444 439.364 241.546 434.851H241.393H240.541C241.16 434.816 241.558 434.851 241.558 434.851C241.558 434.851 238.676 423.838 239.853 422.945C241.029 422.052 237.506 409.847 237.506 409.847C237.506 409.847 235.488 389.367 235.38 387.932C235.385 386.701 235.563 385.477 235.909 384.301L235.38 373.073C235.38 373.073 235.278 369.34 235.38 368.125C235.363 367.071 235.281 366.019 235.136 364.976C235.085 364.559 235.034 364.125 234.977 363.696C237.733 362.964 239.523 362.285 239.523 362.285L239.205 323.201C241.546 318.438 241.978 307.99 241.967 300.577C241.967 295.815 241.762 292.29 241.762 292.29L244.962 286.819C244.962 286.819 245.701 280.27 244.53 278.835C244.013 278.187 244.246 277.514 244.672 276.96C244.893 276.776 245.127 276.609 245.371 276.46C245.371 276.46 245.337 276.406 245.297 276.329C245.521 276.134 245.758 275.956 246.008 275.799C246.008 275.799 244.871 273.954 245.888 273.174C246.843 273.852 247.695 274.364 248.343 274.781C248.298 275.216 248.252 275.466 248.252 275.466L248.525 274.87C249.15 275.24 249.531 275.466 249.531 275.466C249.531 275.466 254.544 265.006 254.436 263.464C254.328 261.922 257.845 255.427 257.845 255.427C257.845 255.427 258.272 252.015 260.192 250.586C262.113 249.158 261.681 238.805 261.681 238.805C261.681 238.805 262.216 233.411 263.494 231.208C264.773 229.005 262.329 226.034 262.329 226.034ZM166.422 221.444L166.519 223.939C165.95 222.98 165.541 222.29 165.541 222.29L166.422 221.444Z" fill="url(#paint0_linear_127_176)"/>
<path d="M249.805 270.947L248.577 276.425C248.577 276.425 238.745 271.168 236.972 264.488C235.199 257.808 239.939 255.272 239.939 255.272L249.1 259.338L249.805 270.947Z" fill="white"/>
<path opacity="0.1" d="M249.805 270.947L248.577 276.425C248.577 276.425 238.745 271.168 236.972 264.488C235.199 257.808 239.939 255.272 239.939 255.272L249.1 259.338L249.805 270.947Z" fill="black"/>
<path d="M194.627 457.355C194.627 457.355 185.534 460.856 179.283 461.297C175.964 461.529 174.219 459.398 173.321 457.344C172.831 456.202 172.515 454.986 172.384 453.742L173.196 444.305L173.628 439.281L186.91 435.667L188.791 441.692L188.967 442.15C189.723 444.163 192.752 452.349 192.661 454.057C192.657 454.495 192.738 454.929 192.898 455.333C193.058 455.737 193.295 456.103 193.593 456.409C193.898 456.769 194.245 457.087 194.627 457.355Z" fill="white"/>
<path d="M256.737 452.557C256.76 452.844 256.733 453.132 256.658 453.408C256.658 453.408 237.21 456.808 233.232 453.408C232.111 452.415 230.803 451.679 229.394 451.246C227.985 450.813 226.505 450.694 225.049 450.896C225.049 450.896 217.524 451.11 216.268 448.515C215.746 447.425 215.882 445.312 216.206 443.228C216.536 441.276 216.977 439.345 217.524 437.447L217.825 437.197L219.616 435.691L240.575 435.042H240.734C240.632 439.531 247.849 444.681 247.849 444.681C255.515 447.657 256.646 451.021 256.737 452.557Z" fill="white"/>
<path opacity="0.1" d="M256.737 452.557C256.757 452.844 256.728 453.132 256.652 453.408C256.652 453.408 237.21 456.808 233.232 453.408C232.111 452.416 230.805 451.68 229.397 451.247C227.988 450.815 226.509 450.695 225.054 450.896C225.054 450.896 217.524 451.11 216.274 448.515C215.751 447.419 215.882 445.312 216.206 443.228C219.104 443.532 223.679 444.288 225.475 446.092C228.191 448.836 232.795 451.575 235.619 451.789C237.83 451.938 251.054 452.379 256.737 452.557Z" fill="black"/>
<path opacity="0.1" d="M194.627 457.356C194.627 457.356 185.534 460.856 179.283 461.297C175.964 461.529 174.219 459.398 173.327 457.338C175.64 458.154 178.851 459.011 180.539 458.225C182.539 457.296 189.632 456.695 193.61 456.439C193.913 456.786 194.254 457.094 194.627 457.356Z" fill="black"/>
<path d="M208.119 175.251C200.618 172.197 190.968 162.106 193.378 157.391C193.913 156.201 194.231 154.917 194.315 153.605C194.47 151.823 194.493 150.032 194.384 148.247C194.215 145.323 193.879 142.412 193.378 139.531C193.378 139.531 216.798 140.084 215.434 143.698C215.036 144.758 214.973 146.597 215.081 148.657C215.189 150.717 215.473 153.045 215.769 155.016C216.178 157.719 216.587 159.778 216.587 159.778C216.587 159.778 215.155 161.88 214.314 161.993C213.473 162.106 218.883 179.603 208.119 175.251Z" fill="#CF6F80"/>
<path opacity="0.1" d="M188.95 442.15L188.774 442.353C181.772 433.482 173.305 444.538 173.305 444.538L173.18 444.306L173.612 439.281L186.893 435.667L188.774 441.692L188.95 442.15Z" fill="black"/>
<path opacity="0.1" d="M240.74 435.667C240.74 435.667 235.625 435.554 232.897 438.079C230.169 440.603 216.985 438.626 217.553 438.079C217.721 437.807 217.823 437.496 217.849 437.174L219.639 435.667L240.598 435.019C240.677 435.417 240.74 435.667 240.74 435.667Z" fill="black"/>
<path d="M197.663 366.006C197.282 366.993 196.992 368.015 196.799 369.06C196.325 371.921 196.193 374.833 196.407 377.728C196.617 381.896 196.407 409.823 196.407 409.823C196.407 409.823 191.911 417.271 189.405 419.897C186.899 422.522 194.52 427.237 194.52 427.237C195.656 434.024 188.769 441.692 188.769 441.692C181.767 432.822 173.299 443.883 173.299 443.883C173.299 443.883 168.696 435.548 167.548 432.572C166.4 429.595 172.043 427.535 174.027 426.326C176.01 425.118 173.93 417.992 173.93 417.992C173.93 417.992 172.254 411.746 170.265 406.049C168.275 400.352 172.458 371.989 172.458 371.989C172.458 371.989 172.674 366.953 173.191 365.196C173.452 363.929 173.504 362.624 173.345 361.339C173.311 360.904 173.271 360.541 173.242 360.297C173.214 360.053 173.191 359.94 173.191 359.94L173.271 359.797L176.112 354.248C176.112 354.248 199.026 362.511 197.663 366.006Z" fill="#6C63FF"/>
<path d="M240.74 435.012C240.74 435.012 235.625 434.899 232.897 437.394C230.169 439.888 216.985 437.941 217.553 437.394C218.121 436.846 218.076 432.792 218.076 432.792C210.341 421.73 216.939 417.241 216.939 417.241C216.939 417.241 213.484 399.827 212.859 393.368C212.421 388.855 211.881 376.728 211.591 369.804C211.466 366.827 211.393 364.779 211.393 364.779L217.712 363.446L218.525 363.273L233.767 360.07C233.767 360.07 234.187 363.047 234.471 365.482C234.613 366.522 234.693 367.569 234.71 368.619C234.608 369.81 234.71 373.537 234.71 373.537L235.227 384.712C234.889 385.884 234.715 387.101 234.71 388.325C234.812 389.748 236.796 410.121 236.796 410.121C236.796 410.121 240.245 422.278 239.069 423.153C237.893 424.028 240.74 435.012 240.74 435.012Z" fill="#6C63FF"/>
<path opacity="0.1" d="M215.433 143.698C215.035 144.758 214.973 146.598 215.081 148.657C211.944 150.636 208.337 151.648 204.676 151.576C201.015 151.505 197.447 150.353 194.383 148.253C194.214 145.327 193.878 142.414 193.377 139.531C193.377 139.531 216.797 140.073 215.433 143.698Z" fill="black"/>
<path d="M224.486 130.541C224.49 132.687 224.168 134.819 223.531 136.858C222.107 141.426 219.188 145.32 215.288 147.852C211.389 150.383 206.761 151.389 202.222 150.692C197.683 149.994 193.525 147.638 190.484 144.04C187.443 140.442 185.714 135.834 185.602 131.029C185.602 130.863 185.602 130.708 185.602 130.541C185.558 127.837 186.029 125.151 186.986 122.639C187.943 120.127 189.369 117.84 191.179 115.911C192.989 113.982 195.147 112.45 197.528 111.405C199.909 110.359 202.465 109.82 205.047 109.82C207.629 109.82 210.185 110.359 212.566 111.405C214.947 112.45 217.105 113.982 218.915 115.911C220.725 117.84 222.151 120.127 223.108 122.639C224.065 125.151 224.536 127.837 224.492 130.541H224.486Z" fill="#CF6F80"/>
<path opacity="0.1" d="M208.119 175.252C200.618 172.198 190.968 162.107 193.378 157.391C193.913 156.202 194.231 154.917 194.315 153.605L204.585 162.446L210.938 167.905L215.769 155.022C216.178 157.725 216.587 159.785 216.587 159.785C216.587 159.785 215.155 161.886 214.314 161.999C213.473 162.112 218.883 179.604 208.119 175.252Z" fill="black"/>
<path d="M234.676 214.324L226.1 365.244L214.916 366.012L185.955 278.502L190.706 174.609L191.706 152.658L204.584 163.738L210.943 169.197L215.916 155.939L225.162 164.381L234.676 214.324Z" fill="#6C63FF"/>
<path opacity="0.1" d="M197.662 366.006C197.281 366.992 196.992 368.015 196.798 369.06C188.66 367.744 180.756 365.157 173.35 361.386L173.196 361.303L173.247 360.344L173.276 359.844L176.117 354.295C176.117 354.295 199.026 362.511 197.662 366.006Z" fill="black"/>
<path opacity="0.1" d="M217.843 369.084C215.762 369.454 213.664 369.705 211.557 369.834C211.432 366.857 211.358 364.809 211.358 364.809L217.678 363.476L217.843 369.084Z" fill="black"/>
<path opacity="0.1" d="M234.437 365.512C230.396 366.613 224.156 367.852 218.57 367.078L218.49 363.303L233.732 360.1C233.732 360.1 234.153 363.047 234.437 365.512Z" fill="black"/>
<path opacity="0.1" d="M218.468 367.768C195.167 371.936 173.827 359.987 173.827 359.987L174.032 355.939C174.032 355.939 174.56 310.044 173.094 306.525C171.628 303.007 170.486 285.164 171.315 282.426C172.145 279.687 168.286 238.62 168.286 238.62L167.661 221.951L144.781 212.24L155.011 189.903C156.392 186.771 157.581 183.55 158.568 180.259C160.347 174.46 168.605 168.762 168.605 168.762C168.605 168.762 177.072 163.071 180.42 163.285C183.767 163.5 188.154 158.249 188.154 158.249C191.394 149.598 194.326 153.516 194.326 153.516C194.326 153.926 194.326 153.516 194.167 154.796C193.03 164.291 212.546 194.297 212.824 194.827L214.683 242.252L216.564 302.268L218.468 367.768Z" fill="black"/>
<path d="M217.843 367.768C194.543 371.936 173.197 359.987 173.197 359.987L173.407 355.939C173.407 355.939 173.936 310.044 172.464 306.525C170.992 303.007 169.855 285.164 170.691 282.426C171.526 279.687 167.662 238.62 167.662 238.62L167.031 221.951L144.14 212.205L154.369 189.868C155.748 186.734 156.936 183.513 157.927 180.223C159.7 174.424 167.963 168.727 167.963 168.727C167.963 168.727 176.431 163.035 179.772 163.25C183.114 163.464 187.507 158.213 187.507 158.213C190.752 149.563 194.327 153.48 194.327 153.48C194.327 153.891 193.986 154.075 194.168 154.76C196.668 163.97 211.921 194.261 212.2 194.791L214.081 242.216L215.962 302.233L217.843 367.768Z" fill="white"/>
<path opacity="0.1" d="M211.563 196.142C209.056 195.047 195.781 179.169 195.781 179.169V175.555C195.298 174.365 192.428 175.091 190.098 175.924L191.098 153.974L192.234 154.962C194.724 164.166 211.273 195.613 211.563 196.142Z" fill="black"/>
<path d="M212.194 194.826C209.682 193.731 196.407 177.853 196.407 177.853V174.239C195.924 173.049 193.054 173.775 190.724 174.609L191.73 152.658L192.866 153.646C195.361 162.851 211.916 194.303 212.194 194.826Z" fill="white"/>
<path opacity="0.1" d="M173.828 274.013C174.14 274.013 190.03 272.263 190.03 272.263C190.03 272.263 199.651 292.082 199.02 296.904C198.39 301.727 197.247 305.995 193.377 305.239C189.507 304.483 172.549 305.835 172.549 305.835L173.828 274.013Z" fill="black"/>
<path d="M173.197 272.698C173.509 272.698 189.399 270.947 189.399 270.947C189.399 270.947 199.015 290.772 198.39 295.589C197.764 300.405 196.611 304.68 192.746 303.923C188.882 303.167 171.918 304.519 171.918 304.519L173.197 272.698Z" fill="white"/>
<path d="M185.171 263.393C185.171 263.393 199.754 271.602 200.066 274.109C200.379 276.615 192.644 273.013 190.973 272.579C189.874 272.301 188.754 272.118 187.626 272.031L176.481 272.347L185.171 263.393Z" fill="#CF6F80"/>
<path opacity="0.1" d="M207.494 197.166C208.342 197.166 209.029 196.446 209.029 195.559C209.029 194.671 208.342 193.951 207.494 193.951C206.647 193.951 205.96 194.671 205.96 195.559C205.96 196.446 206.647 197.166 207.494 197.166Z" fill="black"/>
<path d="M207.494 196.511C208.342 196.511 209.029 195.792 209.029 194.904C209.029 194.016 208.342 193.296 207.494 193.296C206.647 193.296 205.96 194.016 205.96 194.904C205.96 195.792 206.647 196.511 207.494 196.511Z" fill="#3F3D56"/>
<path opacity="0.1" d="M210.319 266.75C211.166 266.75 211.853 266.03 211.853 265.143C211.853 264.255 211.166 263.535 210.319 263.535C209.471 263.535 208.784 264.255 208.784 265.143C208.784 266.03 209.471 266.75 210.319 266.75Z" fill="black"/>
<path d="M210.319 266.089C211.166 266.089 211.853 265.37 211.853 264.482C211.853 263.594 211.166 262.875 210.319 262.875C209.471 262.875 208.784 263.594 208.784 264.482C208.784 265.37 209.471 266.089 210.319 266.089Z" fill="#3F3D56"/>
<path opacity="0.1" d="M209.023 231.958C209.87 231.958 210.557 231.238 210.557 230.351C210.557 229.463 209.87 228.743 209.023 228.743C208.175 228.743 207.488 229.463 207.488 230.351C207.488 231.238 208.175 231.958 209.023 231.958Z" fill="black"/>
<path d="M209.023 231.303C209.87 231.303 210.557 230.584 210.557 229.696C210.557 228.808 209.87 228.088 209.023 228.088C208.175 228.088 207.488 228.808 207.488 229.696C207.488 230.584 208.175 231.303 209.023 231.303Z" fill="#3F3D56"/>
<path d="M244.394 271.698C244.394 271.698 245.44 273.341 244.394 274.109C243.348 274.877 244.496 276.734 244.496 276.734C244.496 276.734 241.888 278.336 243.036 279.776C244.184 281.217 243.456 287.724 243.456 287.724L240.319 293.166C240.319 293.166 240.507 296.672 240.518 301.411C240.518 308.805 240.103 319.2 237.807 323.939L238.125 362.821C238.125 362.821 227.14 367.024 217.945 365.744L216.581 303.352C216.581 303.352 218.57 267.971 219.303 261.184C219.732 257.66 219.907 254.108 219.826 250.557C219.826 250.557 219.514 239.936 218.462 235.006C218.462 235.006 217.326 213.651 217.212 207.74C217.161 204.912 217.303 196.66 217.462 188.814C217.638 180.235 217.837 172.144 217.837 172.144L215.763 154.95C215.763 154.95 217.837 154.73 218.462 155.605C218.742 155.879 219.047 156.125 219.371 156.338C222.952 158.874 235.602 166.673 235.602 166.673C235.602 166.673 242.604 169.59 244.28 173.769C245.957 177.949 247.122 180.913 247.934 182.104C248.747 183.295 249.19 188.891 249.19 188.891C249.19 188.891 251.6 199.191 253.481 200.935C255.362 202.679 256.737 213.776 256.737 213.776L240.115 227.469C240.115 227.469 238.654 250.247 238.341 251.128C238.029 252.01 244.394 271.698 244.394 271.698Z" fill="white"/>
<path d="M245.024 271.697C245.024 271.697 246.064 273.34 245.024 274.108C243.984 274.876 245.121 276.734 245.121 276.734C245.121 276.734 242.53 278.353 243.666 279.794C244.803 281.235 244.087 287.742 244.087 287.742L240.95 293.183C240.95 293.183 241.137 296.69 241.154 301.429C241.154 308.823 240.739 319.218 238.443 323.957L238.756 362.839C238.756 362.839 227.754 367.042 218.57 365.762L217.212 303.37C217.212 303.37 219.201 267.988 219.934 261.201C220.363 257.678 220.536 254.125 220.451 250.574C220.451 250.574 220.138 239.953 219.093 235.024C219.093 235.024 217.956 213.669 217.837 207.757C217.786 204.929 217.933 196.678 218.087 188.831C218.263 180.252 218.462 172.162 218.462 172.162L215.723 154.736C215.723 154.736 218.462 154.736 219.093 155.623C219.37 155.9 219.675 156.146 220.002 156.355C223.582 158.891 236.238 166.69 236.238 166.69C236.238 166.69 243.234 169.608 244.911 173.787C246.587 177.966 247.752 180.931 248.571 182.122C249.389 183.312 249.821 188.909 249.821 188.909C249.821 188.909 252.231 199.208 254.112 200.952C255.993 202.697 257.351 213.77 257.351 213.77L240.728 227.463C240.728 227.463 239.268 250.241 238.949 251.122C238.631 252.003 245.024 271.697 245.024 271.697Z" fill="white"/>
<path opacity="0.1" d="M225.117 177.216L226.617 181.801L218.718 190.135C218.894 181.562 219.093 173.466 219.093 173.466L216.354 156.04C216.354 156.04 219.093 156.04 219.724 156.927C220 157.204 220.305 157.447 220.633 157.653L227.35 177.955L225.117 177.216Z" fill="black"/>
<path d="M224.486 175.901L225.992 180.485L218.092 188.82C218.269 180.241 218.468 172.15 218.468 172.15L215.723 154.724C215.723 154.724 218.468 154.724 219.093 155.611C219.371 155.887 219.676 156.132 220.002 156.343L226.725 176.639L224.486 175.901Z" fill="white"/>
<path opacity="0.1" d="M224.486 130.541C224.49 132.687 224.168 134.819 223.531 136.858C223.424 136.875 223.314 136.87 223.209 136.843C223.103 136.815 223.004 136.766 222.917 136.697C222.77 131.339 220.252 126.308 217.155 122.028C216.285 120.735 215.231 119.591 214.029 118.634C212.814 117.678 211.303 117.231 209.79 117.378C208.085 117.622 206.579 118.837 204.857 118.992C202.583 119.188 200.549 117.539 198.293 117.456C197.376 117.465 196.471 117.679 195.639 118.083C194.807 118.488 194.067 119.073 193.468 119.801C192.283 121.27 191.402 122.981 190.882 124.826C189.988 127.623 189.502 130.545 189.439 133.494C189.41 135.161 189.257 137.251 187.779 137.858C187.89 136.632 187.757 135.395 187.388 134.226C187.02 133.057 186.423 131.98 185.637 131.065L185.602 131.029C185.602 130.863 185.602 130.708 185.602 130.541C185.558 127.837 186.029 125.151 186.986 122.639C187.943 120.127 189.369 117.84 191.179 115.911C192.989 113.982 195.147 112.45 197.528 111.405C199.909 110.359 202.465 109.82 205.047 109.82C207.629 109.82 210.185 110.359 212.566 111.405C214.947 112.45 217.105 113.982 218.915 115.911C220.725 117.84 222.151 120.127 223.108 122.639C224.065 125.151 224.536 127.837 224.492 130.541H224.486Z" fill="black"/>
<path d="M213.097 98.1959C210.144 96.7407 206.785 96.4655 203.652 97.422C202.078 97.9102 200.595 98.702 198.998 99.1008C195.588 99.9641 191.61 99.0294 188.683 101.119C187.058 102.31 186.08 104.191 185.171 106.019L182.898 110.555C181.659 113.038 180.408 115.562 179.891 118.295C179.374 121.027 179.687 124.087 181.34 126.284C182.545 127.886 184.324 128.892 185.631 130.398C186.414 131.314 187.008 132.39 187.376 133.558C187.744 134.726 187.877 135.961 187.768 137.185C189.251 136.59 189.393 134.494 189.427 132.827C189.491 129.878 189.977 126.956 190.871 124.159C191.39 122.314 192.27 120.602 193.457 119.134C194.056 118.407 194.796 117.822 195.628 117.417C196.46 117.013 197.365 116.798 198.282 116.789C200.555 116.872 202.595 118.515 204.846 118.319C206.55 118.17 208.062 116.949 209.778 116.711C211.292 116.561 212.804 117.009 214.018 117.967C215.219 118.922 216.272 120.067 217.138 121.361C220.241 125.641 222.759 130.66 222.906 136.03C223.548 136.524 224.475 135.881 224.793 135.119C225.111 134.357 225.123 133.464 225.526 132.738C225.992 131.898 226.884 131.452 227.583 130.821C229.357 129.219 229.8 126.522 229.732 124.076C229.663 121.629 229.209 119.146 229.652 116.741C229.919 115.264 230.522 113.883 230.851 112.425C231.181 110.966 231.221 109.329 230.442 108.073C229.305 106.227 226.913 105.864 224.827 105.691C222.457 105.477 220.338 105.751 218.826 103.661C218.116 102.571 217.318 101.547 216.439 100.601C216.138 100.292 213.097 98.3269 213.097 98.1959Z" fill="#512E4E"/>
<path opacity="0.1" d="M151.329 223.742L145.39 212.24L143.509 229.987C143.509 229.987 144.554 237.87 144.344 239.078C144.134 240.287 148.629 251.122 148.629 251.122C148.629 251.122 163.479 278.83 169.543 280.258L190.03 264.922L184.597 257.695C184.597 257.695 182.716 256.927 182.244 257.695C182.244 257.695 172.157 239.513 171.111 238.197C170.066 236.882 170.27 234.256 170.27 234.256C170.27 234.256 168.702 232.506 169.225 230.863C169.747 229.219 166.196 223.522 166.196 223.522L169.435 220.349L151.329 223.742Z" fill="black"/>
<path d="M145.703 210.931L144.134 212.24L142.253 229.988C142.253 229.988 143.299 237.87 143.088 239.079C142.878 240.287 147.379 251.122 147.379 251.122C147.379 251.122 162.223 278.83 168.287 280.259L188.78 264.922L183.341 257.695C183.341 257.695 181.46 256.927 180.989 257.695C180.989 257.695 170.901 239.513 169.856 238.197C168.81 236.882 169.02 234.256 169.02 234.256C169.02 234.256 167.452 232.506 167.974 230.863C168.497 229.22 164.94 223.522 164.94 223.522L168.179 220.349L145.703 210.931Z" fill="white"/>
<path opacity="0.1" d="M243.036 280.455C244.173 281.902 243.457 288.397 243.457 288.397L240.32 293.838C240.32 293.838 240.507 297.351 240.518 302.084L235.245 303.81C234.768 303.966 234.263 304.001 233.771 303.91C233.279 303.82 232.815 303.608 232.417 303.292C232.02 302.975 231.7 302.564 231.485 302.092C231.27 301.62 231.166 301.101 231.181 300.578L232.09 269.852L244.394 274.782C243.349 275.544 244.497 277.413 244.497 277.413C244.497 277.413 241.888 279.008 243.036 280.455Z" fill="black"/>
<path d="M243.667 279.794C244.803 281.241 244.087 287.742 244.087 287.742L240.95 293.183C240.95 293.183 241.138 296.69 241.155 301.429L235.784 303.185C235.317 303.337 234.823 303.37 234.341 303.281C233.86 303.192 233.406 302.984 233.017 302.675C232.627 302.365 232.315 301.962 232.104 301.5C231.893 301.038 231.791 300.53 231.806 300.018L232.721 269.197L245.031 274.126C243.979 274.888 245.127 276.752 245.127 276.752C245.127 276.752 242.53 278.353 243.667 279.794Z" fill="white"/>
<path d="M247.741 265.148C247.741 265.148 246.906 270.739 244.815 271.066C242.723 271.394 241.786 280.109 239.7 279.8C237.614 279.49 238.995 271.697 239.069 270.185C239.143 268.673 236.796 262.41 238.552 260.987C240.308 259.564 245.866 260.987 245.866 260.987L247.741 265.148Z" fill="#CF6F80"/>
<path opacity="0.1" d="M252.192 222.099L256.136 213.765C256.136 213.765 257.704 220.117 257.704 223.51C257.704 226.904 259.898 227.237 259.898 227.237C259.898 227.237 262.302 230.214 261.034 232.381C259.767 234.548 259.256 239.942 259.256 239.942C259.256 239.942 259.67 250.235 257.789 251.658C255.908 253.081 255.516 256.481 255.516 256.481C255.516 256.481 252.061 262.94 252.169 264.476C252.277 266.012 247.361 276.413 247.361 276.413C247.361 276.413 249.765 263.488 235.756 257.903C235.756 257.903 235.648 253.516 236.694 252.313C237.739 251.111 239.371 250.563 238.348 244.484C237.325 238.406 238.052 231.143 238.052 229.684C238.052 228.226 241.189 219.129 241.189 219.129L252.192 222.099Z" fill="black"/>
<path d="M253.896 212.574L257.34 213.764C257.34 213.764 258.914 220.117 258.914 223.51C258.914 226.904 261.108 227.237 261.108 227.237C261.108 227.237 263.511 230.214 262.244 232.381C260.977 234.548 260.471 239.942 260.471 239.942C260.471 239.942 260.886 250.235 259.005 251.658C257.124 253.081 256.703 256.48 256.703 256.48C256.703 256.48 253.254 262.94 253.362 264.476C253.469 266.012 248.548 276.412 248.548 276.412C248.548 276.412 250.958 263.488 236.943 257.903C236.943 257.903 236.841 253.516 237.887 252.313C238.932 251.11 240.563 250.563 239.54 244.484C238.517 238.406 239.245 231.143 239.245 229.684C239.245 228.225 242.382 219.128 242.382 219.128L253.896 212.574Z" fill="white"/>
<path opacity="0.1" d="M177.828 428.607C177.828 428.607 183.318 424.993 186.921 427.618C190.524 430.244 177.828 428.607 177.828 428.607Z" fill="black"/>
<path opacity="0.1" d="M220.485 417.432C220.485 417.432 225.344 416.777 229.425 421.379C233.505 425.981 220.485 417.432 220.485 417.432Z" fill="black"/>
<g opacity="0.1">
<path opacity="0.1" d="M227.595 129.517C226.896 130.148 225.998 130.601 225.532 131.44C225.134 132.161 225.123 133.048 224.805 133.822C224.486 134.596 223.56 135.227 222.918 134.738C222.77 129.38 220.247 124.35 217.15 120.063C216.284 118.77 215.231 117.625 214.03 116.67C212.813 115.712 211.299 115.264 209.784 115.414C208.08 115.658 206.579 116.872 204.857 117.021C202.584 117.223 200.544 115.574 198.288 115.491C197.371 115.501 196.466 115.715 195.635 116.121C194.804 116.526 194.065 117.113 193.468 117.843C192.282 119.308 191.401 121.018 190.883 122.861C189.99 125.659 189.503 128.581 189.439 131.53C189.405 133.191 189.257 135.262 187.791 135.882C187.825 136.321 187.825 136.763 187.791 137.203C189.269 136.608 189.416 134.512 189.45 132.845C189.514 129.896 190 126.974 190.894 124.177C191.413 122.332 192.293 120.62 193.48 119.152C194.078 118.425 194.817 117.84 195.648 117.435C196.479 117.031 197.383 116.817 198.299 116.807C200.572 116.89 202.618 118.533 204.869 118.337C206.573 118.188 208.085 116.967 209.796 116.729C211.311 116.58 212.825 117.027 214.041 117.985C215.243 118.941 216.295 120.085 217.161 121.379C220.258 125.659 222.782 130.678 222.929 136.048C223.571 136.542 224.498 135.899 224.816 135.137C225.134 134.375 225.146 133.482 225.543 132.756C226.01 131.917 226.907 131.47 227.606 130.839C229.38 129.237 229.823 126.541 229.755 124.094C229.755 124.016 229.755 123.939 229.755 123.867C229.647 125.987 229.107 128.148 227.595 129.517Z" fill="black"/>
<path opacity="0.1" d="M185.643 129.095C184.336 127.588 182.551 126.582 181.352 124.987C180.343 123.574 179.766 121.874 179.698 120.111C179.52 122.314 180.107 124.511 181.352 126.296C182.551 127.898 184.336 128.904 185.643 130.41C186.898 131.884 187.651 133.751 187.785 135.721C187.872 134.522 187.728 133.317 187.359 132.179C186.991 131.04 186.407 129.991 185.643 129.095Z" fill="black"/>
<path opacity="0.1" d="M230.863 111.121C230.528 112.58 229.931 113.967 229.658 115.437C229.497 116.42 229.438 117.418 229.482 118.414C229.501 117.847 229.56 117.282 229.658 116.723C229.931 115.247 230.528 113.866 230.863 112.407C231.058 111.603 231.122 110.769 231.051 109.942C231.015 110.34 230.953 110.733 230.863 111.121Z" fill="black"/>
</g>
<path opacity="0.1" d="M75.4313 452.813C106.014 452.813 130.807 448.642 130.807 443.496C130.807 438.35 106.014 434.179 75.4313 434.179C44.8482 434.179 20.0557 438.35 20.0557 443.496C20.0557 448.642 44.8482 452.813 75.4313 452.813Z" fill="#6C63FF"/>
<path d="M77.2156 265.012H73.6523V349.056H77.2156V265.012Z" fill="#535461"/>
<path d="M99.6072 348.801L99.3856 352.587L99.0673 357.945L98.9366 360.172L98.624 365.53L98.4876 367.756L98.1694 373.114L94.5777 433.881C94.4216 436.496 93.3203 438.95 91.4981 440.744C89.6758 442.538 87.2694 443.537 84.7688 443.538H66.0943C63.5942 443.537 61.1885 442.537 59.3671 440.743C57.5458 438.949 56.4457 436.495 56.291 433.881L52.7164 373.073L52.3981 367.715L52.2674 365.488L51.9491 360.13L51.8184 357.903L51.5002 352.545L51.2729 348.759C51.2334 348.03 51.3364 347.301 51.5758 346.615C51.8151 345.93 52.1855 345.302 52.6645 344.772C53.1434 344.242 53.7207 343.82 54.3609 343.532C55.0012 343.244 55.6908 343.096 56.3876 343.097H94.5834C95.2775 343.103 95.9631 343.259 96.5978 343.553C97.2324 343.848 97.8027 344.276 98.2735 344.81C98.7442 345.344 99.1055 345.974 99.3349 346.661C99.5642 347.347 99.6569 348.075 99.6072 348.801Z" fill="#3F3D56"/>
<path d="M99.3857 352.587L99.0674 357.927H51.7958L51.4775 352.587H99.3857Z" fill="#9D9CB5"/>
<path d="M98.936 360.154L98.6234 365.5H52.244L51.9258 360.154H98.936Z" fill="#9D9CB5"/>
<path d="M98.4873 367.732L98.1747 373.073H52.6932L52.375 367.732H98.4873Z" fill="#9D9CB5"/>
<path d="M46.0386 296.511C66.7874 312.24 75.4484 336.84 75.4484 336.84C75.4484 336.84 50.443 335.941 29.6885 320.212C8.93396 304.483 0.290039 279.889 0.290039 279.889C0.290039 279.889 25.2841 280.782 46.0386 296.511Z" fill="#6C63FF"/>
<path d="M0.272461 279.889C0.272461 279.889 26.2326 294.981 34.5583 307.477C42.884 319.974 75.4479 336.84 75.4479 336.84" stroke="#535461" stroke-width="2" stroke-miterlimit="10"/>
<path d="M59.4334 264.827C70.7256 273.382 75.4482 286.771 75.4482 286.771C75.4482 286.771 61.8373 286.283 50.5394 277.728C39.2415 269.173 34.5303 255.778 34.5303 255.778C34.5303 255.778 48.1355 256.266 59.4334 264.827Z" fill="#6C63FF"/>
<path d="M34.5303 255.778C34.5303 255.778 48.6583 263.994 53.1877 270.792C57.7171 277.591 75.4482 286.771 75.4482 286.771" stroke="#535461" stroke-width="2" stroke-miterlimit="10"/>
<path d="M91.8433 286.093C78.8689 301.03 76.124 320.551 76.124 320.551C76.124 320.551 94.4178 315.848 107.381 300.905C120.344 285.962 123.1 266.446 123.1 266.446C123.1 266.446 104.818 271.155 91.8433 286.093Z" fill="#6C63FF"/>
<path d="M123.112 266.453C123.112 266.453 106.21 281.765 101.914 292.314C97.6173 302.864 76.124 320.552 76.124 320.552" stroke="#535461" stroke-width="2" stroke-miterlimit="10"/>
<path d="M568.118 280.836C568.118 280.836 558.735 231.934 562.327 225.85C562.327 225.85 562.457 220.194 562.242 212.985C562.242 212.711 562.242 212.437 562.242 212.157C562.873 212.598 563.532 212.996 564.214 213.348C567.523 215.129 571.322 215.643 574.955 214.8L572.113 211.484C571.431 210.692 570.721 209.835 570.573 208.787C570.425 207.74 570.834 206.805 571.187 205.87C573.886 198.726 574.028 189.742 568.828 184.289C564.435 179.705 563.367 173.787 558.599 169.602C555.115 166.536 553.2 162.041 551.393 157.695C549.864 154.022 548.324 150.319 547.449 146.425C546.767 143.383 546.494 140.233 545.556 137.263C544.618 134.292 542.862 131.405 540.117 130.077C539.14 129.607 538.054 129.339 537.162 128.714C535.992 127.886 535.287 126.541 534.44 125.362C530.138 119.408 515.731 122.915 508.912 125.332C507.058 125.941 505.341 126.937 503.865 128.261L503.928 128.154C503.979 128.065 504.041 127.975 504.098 127.886C503.352 128.518 502.707 129.272 502.189 130.119C501.194 131.768 500.779 133.691 499.95 135.477C498.949 137.59 493.386 143.49 495.778 145.865C495.946 146.025 496.138 146.154 496.347 146.246C497.245 146.638 498.234 146.742 499.188 146.544L499.086 146.8C498.269 148.896 497.85 151.139 497.853 153.402C497.853 163.184 505.553 171.114 515.061 171.114C516.848 171.116 518.625 170.829 520.329 170.263C520.369 170.489 520.403 170.715 520.443 170.941C520.443 171.031 520.471 171.12 520.483 171.209L520.181 171.65C520.166 171.623 520.149 171.597 520.13 171.572L511.208 184.634C509.844 185.64 501.99 191.594 501.547 196.059C501.081 200.947 500.615 206.668 500.615 206.668L500.552 207.894C500.162 208.236 499.706 208.484 499.215 208.623C498.725 208.762 498.211 208.787 497.711 208.698C494.926 208.222 494.926 219.414 494.926 219.414C494.926 219.414 493.073 221.2 491.8 219.652C490.527 218.105 487.163 223.35 487.163 223.35L466.079 224.302L465.596 224.332L464.459 220.647C464.337 220.258 464.073 219.935 463.725 219.749C463.377 219.563 462.973 219.528 462.601 219.652C462.513 219.683 462.427 219.721 462.345 219.766L462.265 219.813L462.118 219.92L462.044 219.992C462.003 220.031 461.965 220.072 461.93 220.117L461.862 220.2L461.828 220.236C461.696 220.426 461.61 220.646 461.574 220.877C461.539 221.109 461.555 221.346 461.623 221.569L462.601 224.731C458.532 225.588 454.372 228.005 457.764 234.661L440.567 231.333L446.131 236.227L474.853 242.436C474.472 243.151 474.723 244.187 475.91 245.645C481.025 251.938 490.345 253.647 494.096 254.087C495.087 256.408 496.324 258.605 497.784 260.636L497.46 266.905C497.46 266.905 487.964 314.687 486.225 317.11C487.103 316.068 487.906 314.96 488.629 313.794C485.873 323.611 482.02 337.048 481.008 339.061C479.383 342.276 477.877 355.284 479.729 356.117C480.298 356.373 481.923 356.248 484.242 356.064V357.141L484.139 397.976C484.139 397.976 484.605 423.022 483.327 425.409C482.048 427.797 481.707 432.804 481.707 432.804C481.707 432.804 476.592 442.68 472.54 446.651C472.513 446.682 472.482 446.71 472.449 446.735L472.324 445.806C472.324 445.806 467.454 452.248 456.679 451.884C456.679 451.884 450.195 456.302 459.81 456.54C469.426 456.778 481.707 456.183 481.707 456.183C481.707 456.183 490.283 442.49 497.466 444.276V454.653H499.665V444.109C500.685 443.406 501.558 442.493 502.231 441.425C502.905 440.358 503.364 439.159 503.581 437.9C503.769 436.602 503.631 435.276 503.181 434.051C502.731 432.827 501.983 431.746 501.012 430.916C500.576 430.503 500.226 430 499.985 429.439C499.743 428.877 499.615 428.27 499.609 427.654L499.529 427.725C499.529 427.517 499.478 427.303 499.455 427.082C498.824 421.724 498.034 410.669 500.825 402.489C504.65 391.272 505.809 375.651 503.024 366.351C502.126 363.379 501.388 360.356 500.813 357.296C500.745 356.909 500.683 356.54 500.626 356.195C502.529 356.464 504.414 356.862 506.269 357.385C512.719 359.249 526.83 359.594 538.879 359.493C538.907 359.838 538.941 360.201 538.981 360.565C539.196 363.089 539.645 365.585 540.322 368.018C541.834 372.781 542.527 393.779 542.527 393.779C542.527 393.779 544.476 411.044 543.414 418.069C542.845 421.974 542.277 425.898 541.953 429.839V429.916C541.953 429.916 538.759 439.442 536.423 444.615C536.367 444.746 536.304 444.877 536.247 445.002C535.625 445.062 535.012 445.204 534.423 445.425C534.423 445.425 531.292 451.974 528.172 453.057C525.052 454.141 526.086 457.707 533.15 456.397C540.214 455.087 550.881 454.016 550.881 454.016L551.341 447.336L553.512 444.49L552.944 451.152L555.257 450.676L554.95 442.573L558.502 437.918C558.502 437.918 562.793 433.917 556.416 426.046V426.219C556.348 426.106 556.286 425.987 556.212 425.874V425.838C555.155 424.123 554.314 420.927 555.854 415.253C558.638 405.001 560.258 395.696 560.258 395.696C560.258 395.696 566.475 370.769 559.002 358.975H559.332C558.566 357.315 558.025 355.552 557.724 353.736C557.686 353.522 557.652 353.301 557.621 353.075C563.151 352.742 568.578 351.694 573.005 349.432C572.988 349.408 570.323 290.254 568.118 280.836ZM497.915 239.579V239.698L496.778 239.757L497.915 239.579ZM494.017 240.144C493.83 240.188 493.655 240.275 493.505 240.4C493.016 241.124 492.71 241.966 492.613 242.847L490.84 242.43C490.84 242.43 489.595 242.151 487.805 241.835L486.958 240.942C489.288 240.74 491.709 240.442 494.017 240.144Z" fill="url(#paint1_linear_127_176)"/>
<path d="M552.682 442.657L552.006 451.093L554.273 450.616L553.932 441.466L552.682 442.657Z" fill="#1D2366"/>
<path d="M500.95 402.602C498.216 410.758 498.989 421.766 499.603 427.112C499.83 429.089 500.041 430.291 500.041 430.291C500.041 430.291 495.954 440.043 495.613 440.412C495.273 440.781 483.588 448.253 483.588 448.253L475.422 453.248C475.422 453.248 467.136 449.443 471.108 448.134C471.92 447.792 472.651 447.27 473.251 446.604C477.229 442.645 482.224 432.804 482.224 432.804C482.224 432.804 482.565 427.809 483.815 425.433C485.066 423.058 484.611 398.095 484.611 398.095L484.708 357.403V352.099L500.251 352.218C500.349 354.019 500.573 355.809 500.921 357.576C501.479 360.625 502.202 363.638 503.087 366.601C505.826 375.883 504.689 391.427 500.95 402.602Z" fill="#FFB0B1"/>
<path opacity="0.1" d="M500.041 430.291C500.041 430.291 495.954 440.043 495.613 440.412C495.272 440.781 483.588 448.253 483.588 448.253L475.422 453.248C475.422 453.248 467.136 449.443 471.108 448.134C471.92 447.792 472.651 447.27 473.251 446.604L473.603 449.205L476.325 449.086L499.626 427.124C499.83 429.089 500.041 430.291 500.041 430.291Z" fill="black"/>
<path d="M499.756 427.678L476.325 449.789L473.602 449.908L473.034 445.74C473.034 445.74 468.272 452.158 457.69 451.801C457.69 451.801 451.336 456.201 460.753 456.439C470.17 456.677 482.195 456.082 482.195 456.082C482.195 456.082 490.595 442.389 497.625 444.175V454.516H499.784V444.079C500.788 443.371 501.645 442.458 502.303 441.394C502.962 440.33 503.408 439.137 503.615 437.888C503.802 436.601 503.669 435.285 503.23 434.067C502.791 432.85 502.061 431.771 501.108 430.934C500.683 430.517 500.344 430.012 500.111 429.452C499.879 428.892 499.758 428.288 499.756 427.678Z" fill="#1D2366"/>
<path d="M554.842 415.318C553.33 420.974 554.155 424.159 555.189 425.868V425.904C556.515 428.013 557.438 430.373 557.905 432.851L557.996 433.387L547.335 449.67L541.55 452.051C541.55 452.051 532.246 448.723 533.946 447.771C534.372 447.538 535.037 446.3 535.798 444.591C538.071 439.442 541.209 429.94 541.209 429.94V429.863C541.538 425.939 542.061 422.028 542.641 418.134C543.681 411.127 541.771 393.928 541.771 393.928C541.771 393.928 541.089 373.013 539.612 368.256C538.945 365.838 538.501 363.358 538.287 360.85C537.981 357.874 537.912 355.421 537.912 355.421C537.912 355.421 544.039 346.491 555.268 356.135C556.166 356.904 556.957 357.802 557.616 358.802C565.373 370.364 559.127 395.833 559.127 395.833C559.127 395.833 557.564 405.096 554.842 415.318Z" fill="#FFB0B1"/>
<path opacity="0.1" d="M558.013 433.387L547.351 449.67L541.566 452.051C541.566 452.051 532.263 448.723 533.962 447.771C534.388 447.539 535.053 446.3 535.815 444.592C539.753 444.556 541.793 448.485 541.793 448.485L546.783 447.652C546.783 447.652 553.364 434.102 554.842 433.274C556.319 432.447 555.069 427.088 555.069 427.088V425.725C555.109 425.773 555.143 425.826 555.188 425.874V425.91C556.515 428.019 557.438 430.379 557.905 432.857L558.013 433.387Z" fill="black"/>
<path d="M542.135 448.836C542.135 448.836 539.294 443.371 533.849 445.389C533.849 445.389 530.786 451.938 527.723 452.998C524.66 454.057 525.683 457.63 532.605 456.326C539.527 455.022 549.961 453.944 549.961 453.944L550.415 447.282L557.451 437.894C557.451 437.894 561.645 433.911 555.405 426.07V427.434C555.405 427.434 556.655 432.792 555.178 433.619C553.7 434.447 547.142 448.003 547.142 448.003L542.135 448.836Z" fill="#1D2366"/>
<path opacity="0.1" d="M500.267 352.206C500.365 354.007 500.589 355.798 500.938 357.564C494.539 356.582 488.6 357.07 484.707 357.391V352.087L500.267 352.206Z" fill="black"/>
<path opacity="0.1" d="M558.246 360.285C558.246 360.285 549.153 360.749 538.31 360.844C538.003 357.868 537.935 355.415 537.935 355.415C537.935 355.415 544.061 346.485 555.291 356.129C556.189 356.899 556.979 357.796 557.638 358.796C557.814 359.304 558.017 359.801 558.246 360.285Z" fill="black"/>
<path d="M558.246 359.213C558.246 359.213 518.419 361.231 506.28 357.665C494.141 354.099 482.11 357.189 480.297 356.361C478.484 355.534 479.956 342.573 481.548 339.364C483.139 336.155 491.868 303.703 491.868 303.703L500.268 257.826L509.116 255.272L509.741 255.087L525.159 250.634L536.457 247.366C536.457 247.366 558.922 339.245 556.996 346.02C556.296 348.615 556.183 351.344 556.666 353.992C556.961 355.8 557.492 357.557 558.246 359.213Z" fill="#1D2366"/>
<path d="M470.988 226.451C470.988 226.451 463.032 235.381 469.056 240.358C475.08 245.335 479.041 240.835 479.041 240.835L470.988 226.451Z" fill="#C7DAF5"/>
<path opacity="0.1" d="M470.988 226.451C470.988 226.451 463.032 235.381 469.056 240.358C475.08 245.335 479.041 240.835 479.041 240.835L470.988 226.451Z" fill="black"/>
<path d="M535.27 167.738C535.27 167.738 534.338 168.667 532.934 170.036C530.934 171.995 527.973 174.859 525.347 177.258C521.71 180.574 518.709 183.009 519.783 180.931C520.858 178.853 520.653 175.234 520.119 171.846C520.079 171.62 520.045 171.394 520.005 171.173C519.563 168.686 518.976 166.228 518.249 163.815C518.249 163.815 524.125 155.861 527.376 152.724C528.586 151.533 529.433 151.045 529.484 151.872C529.541 152.986 530.337 155.444 531.326 158.052C531.354 158.135 531.383 158.213 531.417 158.296C532.076 160.082 532.82 161.916 533.474 163.499C534.474 165.928 535.27 167.738 535.27 167.738Z" fill="#FFB0B1"/>
<path opacity="0.1" d="M531.417 158.296C530.865 161.407 529.525 164.306 527.537 166.69C525.55 169.074 522.988 170.854 520.119 171.846C519.667 169.128 519.042 166.445 518.249 163.815C518.249 163.815 529.314 148.842 529.485 151.872C529.524 153.021 530.388 155.569 531.417 158.296Z" fill="black"/>
<path opacity="0.1" d="M519.016 175.847L520.448 173.733C520.448 173.733 521.397 179.794 524.886 177.121C528.376 174.448 528.546 197.238 528.546 197.238L524.801 255.897L497.738 254.2L498.505 225.856L501.569 211.568L509.144 190.796L513.651 183.932L519.016 175.847Z" fill="black"/>
<path d="M528.547 197.601L525.137 250.64L524.779 256.26L509.69 255.314L509.122 255.278L497.756 254.563L498.523 226.213L501.586 211.925L509.162 191.153L513.668 184.289L519.033 176.174L520.465 174.067C520.465 174.067 521.414 180.128 524.904 177.454L524.978 177.401C528.387 175.139 528.547 197.601 528.547 197.601Z" fill="#1D2366"/>
<path d="M501.967 206.959C501.967 206.959 500.608 209.936 497.881 209.454C495.153 208.972 495.158 220.17 495.158 220.17C495.158 220.17 493.345 221.956 492.095 220.408C490.845 218.86 487.549 224.093 487.549 224.093L466.896 225.046C466.896 225.046 476.086 229.446 474.284 242.758C474.284 242.758 505.484 240.733 506.507 237.644C507.53 234.554 501.967 206.959 501.967 206.959Z" fill="white"/>
<path opacity="0.03" d="M501.967 206.959C501.967 206.959 500.608 209.936 497.881 209.454C495.153 208.972 495.158 220.17 495.158 220.17C495.158 220.17 493.345 221.956 492.095 220.408C490.845 218.86 487.549 224.093 487.549 224.093L466.896 225.046C466.896 225.046 476.086 229.446 474.284 242.758C474.284 242.758 505.484 240.733 506.507 237.644C507.53 234.554 501.967 206.959 501.967 206.959Z" fill="black"/>
<path d="M441.948 232.042L447.393 236.911L492.209 246.776L486.651 240.835L441.948 232.042Z" fill="white"/>
<path d="M519.102 177.722C518.357 178.913 516.226 185.009 514.447 190.332C512.964 194.767 511.725 198.666 511.725 198.666C511.725 198.666 508.832 218.396 507.355 221.962C505.877 225.528 506.679 239.436 506.679 239.436L501.172 273.781C501.172 273.781 498.677 291.493 494.824 302.072C491.022 312.484 486.788 317.366 486.657 317.521C488.362 315.104 497.654 267.512 497.654 267.512L500.723 207.489C500.723 207.489 501.172 201.786 501.626 196.91C502.081 192.034 511.287 185.378 511.287 185.378L520.164 172.156C521.057 173.406 520.46 175.585 519.102 177.722Z" fill="white"/>
<path d="M495.955 254.861C495.955 254.861 482.884 254.266 476.553 246.3C470.222 238.334 491.186 243.121 491.186 243.121L496.637 244.431L495.955 254.861Z" fill="#FFB0B1"/>
<path opacity="0.1" d="M556.996 346.026C556.296 348.62 556.183 351.35 556.666 353.998C542.408 355.057 527.154 351.021 527.154 351.021C524.313 353.76 516.828 357.796 516.828 357.796L512.748 304.81C510.139 297.666 509.116 260.237 509.116 260.237C509.116 260.237 509.349 258.278 509.685 255.343C509.685 255.272 509.685 255.194 509.713 255.123C510.73 246.925 512.748 231.535 513.736 229.457C515.1 226.6 509.542 218.997 509.542 218.997L512.071 196.404L512.378 193.677C517.709 191.183 521.795 183.217 521.795 183.217L524.932 177.46C528.342 175.168 528.518 197.63 528.518 197.63L525.108 250.67L536.406 247.401C536.406 247.401 558.922 339.251 556.996 346.026Z" fill="black"/>
<path d="M571.629 349.687C556.086 357.772 527.836 350.283 527.836 350.283C524.994 353.021 517.51 357.058 517.51 357.058L513.424 304.072C510.821 296.928 509.798 259.499 509.798 259.499C509.798 259.499 513.083 231.571 514.447 228.719C514.844 227.886 514.651 226.648 514.179 225.314C511.86 218.967 511.008 212.135 511.69 205.376L512.781 195.666L513.083 192.945C518.419 190.445 522.505 182.479 522.505 182.479L525.347 177.264L530.575 167.655L533.053 163.106L533.473 163.505L536.684 166.553C536.684 166.553 538.048 167.744 540.094 169.53C544.544 173.459 552.233 180.377 556.2 184.61C559.689 188.337 560.792 202.834 561.11 213.746C561.32 220.932 561.195 226.564 561.195 226.564C557.678 232.631 566.878 281.336 566.878 281.336C569.021 290.748 571.629 349.687 571.629 349.687Z" fill="white"/>
<path opacity="0.03" d="M541.794 182.36C541.794 182.36 531.127 203.631 532.366 211.716C533.605 219.801 537.128 228.951 535.429 231.089C534.845 231.898 534.09 232.556 533.224 233.009C532.357 233.463 531.402 233.7 530.433 233.702C528.728 233.821 524.182 237.149 524.182 237.507C524.182 237.864 519.982 237.864 516.226 239.531C512.469 241.198 506.923 242.144 506.923 242.144C506.923 242.144 496.125 241.787 495.119 242.859C494.113 243.93 493.079 250.342 495.233 255.456C497.386 260.57 499.779 264.386 501.586 265.083C503.393 265.779 514.862 261.755 524.165 260.802C533.468 259.85 543.567 252.128 543.567 252.128C543.567 252.128 554.689 247.961 556.638 240.954C558.587 233.946 554.257 195.434 554.257 195.434C554.257 195.434 550.983 177.484 541.794 182.36Z" fill="black"/>
<path opacity="0.03" d="M540.43 180.574C540.43 180.574 529.763 201.852 531.013 209.93C532.263 218.009 535.775 227.166 534.07 229.309C533.489 230.119 532.735 230.777 531.869 231.231C531.003 231.685 530.049 231.921 529.081 231.922C527.376 232.041 522.829 235.369 522.829 235.727C522.829 236.084 518.629 236.084 514.873 237.745C511.116 239.406 505.57 240.358 505.57 240.358C505.57 240.358 494.772 240.001 493.772 241.073C492.772 242.144 491.726 248.562 493.885 253.67C496.045 258.778 498.432 262.6 500.239 263.297C502.046 263.994 513.515 259.969 522.818 259.022C532.121 258.076 542.22 250.342 542.22 250.342C542.22 250.342 553.336 246.175 555.262 239.174C557.189 232.172 552.881 193.648 552.881 193.648C552.881 193.648 549.619 175.704 540.43 180.574Z" fill="black"/>
<path d="M541.458 181.288C541.458 181.288 530.791 202.566 532.041 210.645C533.292 218.724 536.804 227.88 535.105 230.017C534.523 230.83 533.769 231.49 532.902 231.944C532.035 232.399 531.079 232.636 530.109 232.637C528.404 232.756 523.858 236.084 523.858 236.435C523.858 236.787 519.664 236.792 515.902 238.459C512.139 240.126 506.598 241.073 506.598 241.073C506.598 241.073 495.801 240.716 494.795 241.787C493.789 242.859 492.754 249.277 494.908 254.385C497.062 259.493 499.455 263.315 501.262 264.012C503.069 264.708 514.538 260.684 523.841 259.731C533.144 258.779 543.243 251.057 543.243 251.057C543.243 251.057 554.364 246.89 556.314 239.882C558.263 232.875 553.961 194.362 553.961 194.362C553.961 194.362 550.642 176.442 541.458 181.288Z" fill="white"/>
<path opacity="0.1" d="M541.226 238.358C541.226 238.358 532.701 236.572 535.668 239.549C538.634 242.525 538.617 245.133 542.249 245.014C545.88 244.895 541.226 238.358 541.226 238.358Z" fill="black"/>
<path opacity="0.1" d="M555.633 302.405C555.633 302.405 551.78 305.138 559.15 311.437C566.521 317.735 555.633 302.405 555.633 302.405Z" fill="black"/>
<path opacity="0.1" d="M548.278 324.868C548.278 325.225 546.914 337.965 552.017 341.15C557.121 344.335 548.278 324.868 548.278 324.868Z" fill="black"/>
<path d="M467.249 225.017C463.135 225.165 454.247 226.481 458.856 235.489C462.93 243.46 469.778 238.132 473.632 234.09C472.692 230.321 470.407 227.073 467.249 225.017Z" fill="#FFB0B1"/>
<path d="M473.683 234.018L473.854 233.833L473.683 234.018Z" fill="#FFB0B1"/>
<path opacity="0.1" d="M540.095 169.894C535.73 173.019 532.07 175.657 531.354 176.204C529.399 177.722 525.671 186.635 523.267 191.183C521.352 194.845 515.129 195.785 512.782 196.017L513.083 193.297C518.42 190.796 522.506 182.831 522.506 182.831L533.054 163.458L536.685 166.917C536.685 166.917 538.049 168.108 540.095 169.894Z" fill="black"/>
<path d="M540.095 169.536C535.73 172.662 532.07 175.299 531.354 175.853C529.399 177.365 525.671 186.277 523.267 190.826C521.352 194.487 515.129 195.428 512.782 195.66L513.083 192.939C518.42 190.439 522.506 182.473 522.506 182.473L533.054 163.101L536.685 166.548C536.685 166.548 538.049 167.726 540.095 169.536Z" fill="#DCE7FF"/>
<path d="M531.695 154.367C531.698 157.941 530.663 161.431 528.729 164.375C526.444 167.855 523.044 170.363 519.146 171.442C515.248 172.521 511.109 172.1 507.481 170.257C503.854 168.413 500.977 165.268 499.374 161.392C497.77 157.517 497.546 153.167 498.742 149.133C499.937 145.099 502.474 141.648 505.891 139.406C509.308 137.163 513.379 136.278 517.366 136.911C521.352 137.545 524.99 139.654 527.619 142.856C530.248 146.059 531.694 150.143 531.695 154.367Z" fill="#FFB0B1"/>
<path opacity="0.1" d="M561.11 213.753C558.803 212.265 556.923 210.15 555.672 207.632C554.723 205.668 554.092 203.399 552.472 202.006C551.012 200.756 549.062 200.453 547.244 199.893C541.265 198.041 536.253 192.326 536.065 185.801C535.974 182.729 536.889 179.663 536.474 176.621C536.239 174.899 535.585 173.269 534.576 171.888C534.075 171.227 533.526 170.608 532.934 170.036C532.138 169.25 531.303 168.488 530.575 167.655C530.117 167.139 529.717 166.57 529.382 165.958C529.112 165.458 528.893 164.929 528.728 164.381C527.592 160.737 528.626 156.415 527.376 152.73L527.308 152.527C526.836 151.217 525.876 149.908 524.54 149.807C523.205 149.705 522.062 150.866 520.789 151.384C518.124 152.468 515.248 150.622 513.026 148.741C510.804 146.86 508.298 144.71 505.473 145.127C503.604 145.407 502.126 146.74 500.404 147.431C500.015 147.589 499.614 147.71 499.205 147.794C500.662 143.987 503.34 140.83 506.777 138.867C510.215 136.903 514.198 136.254 518.042 137.033C521.887 137.811 525.352 139.968 527.844 143.132C530.335 146.296 531.697 150.271 531.695 154.373C531.697 155.611 531.573 156.847 531.326 158.058C531.354 158.141 531.382 158.219 531.417 158.302C532.076 160.088 532.82 161.922 533.474 163.505L536.685 166.554C536.685 166.554 538.049 167.744 540.095 169.53C544.544 173.46 552.234 180.377 556.2 184.61C559.69 188.349 560.781 202.84 561.11 213.753Z" fill="black"/>
<path d="M500.206 136.554C501.018 134.822 501.422 132.881 502.394 131.238C503.82 128.856 506.309 127.332 508.866 126.409C515.544 123.998 529.655 120.498 533.872 126.409C534.702 127.6 535.389 128.922 536.537 129.743C537.412 130.369 538.469 130.636 539.43 131.107C542.118 132.428 543.834 135.31 544.749 138.251C545.664 141.192 545.937 144.347 546.608 147.378C547.466 151.265 548.972 154.95 550.472 158.612C552.239 162.934 554.115 167.417 557.525 170.471C562.179 174.638 563.208 180.538 567.527 185.11C572.642 190.54 572.477 199.5 569.84 206.614C569.493 207.549 569.101 208.525 569.237 209.52C569.374 210.514 570.079 211.419 570.743 212.211L573.539 215.515C566.924 217.188 559.44 213.568 556.36 207.216C555.411 205.251 554.78 202.989 553.154 201.59C551.7 200.339 549.745 200.042 547.932 199.482C541.953 197.625 536.941 191.903 536.753 185.378C536.662 182.312 537.577 179.246 537.162 176.21C536.931 174.477 536.276 172.836 535.259 171.447C533.696 169.31 531.337 167.875 530.064 165.494C527.91 161.511 529.547 156.337 527.996 152.063C527.518 150.753 526.563 149.443 525.228 149.342C523.892 149.241 522.75 150.402 521.471 150.92C518.812 152.003 515.936 150.164 513.714 148.277C511.492 146.389 508.986 144.246 506.156 144.669C504.286 144.943 502.814 146.276 501.092 146.973C499.819 147.485 497.239 147.943 496.125 146.818C493.772 144.55 499.222 138.674 500.206 136.554Z" fill="#591D4B"/>
<path opacity="0.1" d="M557.939 205.251C556.984 203.286 556.359 201.024 554.734 199.631C553.279 198.381 551.324 198.077 549.506 197.517C543.533 195.666 538.52 189.945 538.327 183.42C538.236 180.354 539.151 177.282 538.742 174.245C538.504 172.523 537.848 170.894 536.838 169.512C535.269 167.375 532.911 165.94 531.644 163.559C529.49 159.582 531.127 154.409 529.569 150.128C529.098 148.824 528.137 147.515 526.807 147.407C525.478 147.3 524.324 148.473 523.051 148.991C520.391 150.074 517.51 148.229 515.294 146.348C513.077 144.466 510.56 142.317 507.735 142.734C505.865 143.014 504.388 144.347 502.671 145.038C501.398 145.55 498.813 146.014 497.699 144.889C495.357 142.508 500.807 136.643 501.785 134.536C502.598 132.798 503.001 130.863 503.979 129.22C504.03 129.13 504.087 129.041 504.143 128.952C503.412 129.586 502.781 130.338 502.274 131.178C501.302 132.821 500.898 134.75 500.086 136.495C499.103 138.602 493.652 144.484 496 146.848C497.136 147.979 499.694 147.514 500.967 147.002C502.671 146.306 504.16 144.972 506.03 144.699C508.872 144.276 511.372 146.425 513.589 148.306C515.805 150.188 518.703 152.033 521.352 150.95C522.625 150.432 523.739 149.265 525.102 149.372C526.466 149.479 527.376 150.783 527.87 152.093C529.422 156.367 527.785 161.541 529.939 165.524C531.212 167.863 533.57 169.328 535.133 171.477C536.15 172.866 536.806 174.507 537.037 176.24C537.452 179.276 536.537 182.342 536.628 185.408C536.815 191.957 541.828 197.654 547.806 199.512C549.608 200.072 551.574 200.369 553.029 201.619C554.66 203.018 555.302 205.281 556.234 207.245C559.315 213.598 566.799 217.217 573.414 215.545L572.096 213.985C566.362 214.074 560.559 210.657 557.939 205.251Z" fill="black"/>
<path opacity="0.1" d="M518.761 178.08C518.016 179.27 515.885 185.367 514.106 190.689C512.441 190.01 510.93 185.682 510.93 185.682L519.807 172.454C520.716 173.763 520.119 175.936 518.761 178.08Z" fill="black"/>
<path d="M519.102 177.722C518.357 178.913 516.226 185.009 514.447 190.331C512.782 189.659 511.271 185.325 511.271 185.325L520.147 172.102C521.057 173.406 520.46 175.585 519.102 177.722Z" fill="#DCE7FF"/>
<path d="M467.488 238.543L462.566 222.284C462.508 222.094 462.486 221.893 462.502 221.694C462.518 221.495 462.571 221.301 462.659 221.123C462.747 220.946 462.867 220.788 463.013 220.659C463.159 220.53 463.328 220.433 463.51 220.373C463.876 220.253 464.273 220.29 464.613 220.475C464.954 220.66 465.211 220.979 465.328 221.361L470.25 237.602L469.761 241.002L467.488 238.543Z" fill="#BE8B87"/>
<path opacity="0.1" d="M463.033 220.855C463.4 220.733 463.798 220.769 464.14 220.954C464.482 221.139 464.74 221.459 464.857 221.843L469.778 238.084L469.409 240.632L469.767 241.025L470.256 237.626L465.306 221.385C465.188 221.002 464.931 220.683 464.591 220.498C464.25 220.313 463.854 220.277 463.487 220.396C463.179 220.501 462.913 220.711 462.731 220.992C462.828 220.937 462.929 220.892 463.033 220.855Z" fill="white"/>
<path d="M467.488 238.543L470.25 237.626L469.847 240.412L469.761 241.025L468.954 240.144L467.488 238.543Z" fill="#EFC8C4"/>
<path d="M468.954 240.144C469.002 240.08 469.062 240.028 469.13 239.989C469.17 239.963 469.217 239.949 469.264 239.949C469.311 239.949 469.357 239.963 469.397 239.989C469.436 240.038 469.468 240.092 469.494 240.15C469.532 240.216 469.583 240.272 469.644 240.314C469.705 240.356 469.774 240.384 469.846 240.394L469.761 240.989L468.954 240.144Z" fill="#727A9C"/>
<path d="M462.538 228.059C462.538 228.059 472.41 227.999 470.085 232.399C467.761 236.798 464.129 237.328 464.129 237.328L462.538 228.059Z" fill="#FFB0B1"/>
<path d="M401.144 30.6128H400.717C383.759 30.6128 368.762 40.0133 360.135 53.8848C351.508 40.0133 336.51 30.6128 319.552 30.6128H319.126C306.399 30.7398 294.235 36.1233 285.276 45.5933C276.317 55.0633 271.287 67.8545 271.28 81.1873C271.28 97.7438 278.202 121.236 291.699 140.567C317.415 177.401 360.135 209.627 360.135 209.627C360.135 209.627 402.854 177.407 428.564 140.567C442.067 121.236 448.984 97.7438 448.984 81.1873C448.977 67.8555 443.948 55.0652 434.99 45.5954C426.033 36.1256 413.869 30.7414 401.144 30.6128ZM395.046 143.401C393.114 143.393 391.23 142.774 389.641 141.624C388.052 140.475 386.832 138.848 386.14 136.959H376.002C375.334 136.955 374.685 136.732 374.144 136.322C373.603 135.912 373.197 135.336 372.984 134.673L369.87 124.844L360.015 160.916C359.824 161.61 359.422 162.221 358.87 162.655C358.319 163.09 357.648 163.326 356.958 163.327H356.759C356.039 163.291 355.353 162.996 354.815 162.494C354.277 161.991 353.92 161.31 353.804 160.565L343.648 96.577L336.226 134.441C336.056 135.16 335.661 135.799 335.103 136.255C334.546 136.712 333.859 136.96 333.152 136.959H318.87C318.442 136.978 318.015 136.906 317.614 136.748C317.213 136.589 316.847 136.347 316.537 136.037C316.228 135.726 315.982 135.353 315.814 134.94C315.646 134.527 315.559 134.083 315.559 133.634C315.559 133.185 315.646 132.741 315.814 132.328C315.982 131.915 316.228 131.542 316.537 131.232C316.847 130.921 317.213 130.679 317.614 130.521C318.015 130.362 318.442 130.29 318.87 130.309H330.651L341.165 79.4013C341.337 78.6486 341.754 77.9821 342.344 77.5158C342.934 77.0494 343.66 76.8121 344.398 76.8444C345.136 76.8768 345.841 77.1767 346.391 77.6931C346.942 78.2094 347.304 78.91 347.416 79.6751L357.788 144.949L366.619 112.675C366.803 111.995 367.192 111.396 367.728 110.967C368.263 110.538 368.917 110.302 369.591 110.294H369.654C370.322 110.294 370.973 110.515 371.513 110.926C372.054 111.336 372.458 111.915 372.666 112.58L378.298 130.327H386.015C386.564 128.581 387.563 127.027 388.901 125.838C390.239 124.648 391.865 123.87 393.6 123.587C395.334 123.305 397.109 123.53 398.729 124.237C400.348 124.945 401.75 126.108 402.779 127.597C403.808 129.087 404.424 130.845 404.559 132.678C404.694 134.511 404.344 136.348 403.545 137.985C402.747 139.622 401.532 140.997 400.036 141.957C398.539 142.917 396.818 143.425 395.063 143.425L395.046 143.401Z" fill="#6C63FF"/>
</g>
<defs>
<linearGradient id="paint0_linear_127_176" x1="202.504" y1="461.315" x2="202.504" y2="94.9753" gradientUnits="userSpaceOnUse">
<stop stop-color="#808080" stop-opacity="0.25"/>
<stop offset="0.54" stop-color="#808080" stop-opacity="0.12"/>
<stop offset="1" stop-color="#808080" stop-opacity="0.1"/>
</linearGradient>
<linearGradient id="paint1_linear_127_176" x1="126855" y1="276408" x2="126855" y2="88362.7" gradientUnits="userSpaceOnUse">
<stop stop-color="#808080" stop-opacity="0.25"/>
<stop offset="0.54" stop-color="#808080" stop-opacity="0.12"/>
<stop offset="1" stop-color="#808080" stop-opacity="0.1"/>
</linearGradient>
<clipPath id="clip0_127_176">
<rect width="628" height="466" rx="233" fill="white"/>
</clipPath>
</defs>
</svg>
