<?xml version="1.0" standalone="no"?>
<!DOCTYPE svg PUBLIC "-//W3C//DTD SVG 20010904//EN"
 "http://www.w3.org/TR/2001/REC-SVG-20010904/DTD/svg10.dtd">
<svg version="1.0" xmlns="http://www.w3.org/2000/svg"
 width="384.000000pt" height="273.000000pt" viewBox="0 0 384.000000 273.000000"
 preserveAspectRatio="xMidYMid meet">

<g transform="translate(0.000000,273.000000) scale(0.100000,-0.100000)"
fill="#fff" stroke="none">
<path d="M722 2684 c-12 -8 -22 -24 -22 -34 0 -16 -10 -19 -67 -24 -250 -22
-344 -63 -404 -177 -20 -37 -23 -59 -24 -144 0 -55 6 -126 13 -157 13 -57 14
-58 48 -58 19 0 34 3 34 8 0 4 -7 41 -16 82 -30 143 -5 266 64 317 50 37 147
64 253 70 l99 6 0 -30 c0 -61 83 -91 122 -44 24 30 26 146 2 179 -18 26 -69
30 -102 6z"/>
<path d="M1147 2682 c-13 -14 -17 -38 -17 -95 0 -70 2 -77 27 -97 45 -35 113
-2 113 56 0 23 3 24 58 24 80 -1 201 -24 248 -48 110 -57 148 -175 109 -337
-21 -90 -20 -95 18 -95 32 0 33 1 47 63 22 93 19 231 -7 287 -50 109 -188 180
-352 180 -81 0 -120 11 -127 34 -15 46 -86 63 -117 28z"/>
<path d="M2063 2268 c-11 -20 -21 -396 -24 -913 -1 -258 -4 -569 -8 -690 l-6
-220 -13 180 c-43 605 -63 725 -123 725 -43 0 -67 -92 -96 -360 -16 -149 -18
-160 -24 -110 -4 30 -7 116 -8 191 -1 115 -4 138 -17 143 -29 11 -35 6 -55
-41 -25 -58 -61 -98 -114 -126 -57 -29 -199 -35 -295 -12 -38 9 -70 19 -70 21
0 3 22 32 48 67 55 70 112 153 112 161 0 3 -18 6 -40 6 -22 0 -40 -4 -40 -9 0
-15 -116 -164 -161 -208 -58 -55 -117 -93 -143 -93 -55 0 -172 104 -263 233
-51 71 -57 77 -90 77 -29 0 -34 -3 -29 -17 15 -39 97 -144 171 -218 65 -66 90
-84 134 -98 97 -31 139 -23 241 46 25 17 39 23 31 14 -12 -15 -10 -18 15 -28
171 -65 379 -46 470 42 l31 30 7 -161 c8 -189 19 -234 58 -238 49 -6 65 49 99
358 11 102 24 189 28 193 11 11 41 -310 76 -823 10 -140 25 -283 36 -322 8
-31 14 -38 35 -38 18 0 27 8 35 28 15 38 28 566 29 1156 0 275 2 497 5 494 3
-3 14 -139 25 -304 34 -505 53 -655 88 -682 42 -33 66 3 112 168 18 66 36 120
39 120 3 0 20 -28 36 -62 42 -87 61 -93 163 -45 43 21 110 44 148 51 103 21
294 29 500 21 l183 -7 10 -29 c27 -77 109 -139 184 -139 166 0 263 203 165
345 -73 107 -223 115 -308 18 -17 -19 -36 -55 -43 -80 l-12 -46 -200 7 c-217
7 -425 -5 -520 -29 -33 -9 -89 -29 -124 -45 -35 -17 -65 -30 -67 -30 -3 0 -20
34 -40 74 -65 138 -119 112 -169 -84 -9 -36 -20 -71 -25 -79 -14 -26 -27 111
-70 754 -33 503 -47 644 -62 662 -13 17 -45 17 -55 1z m1619 -1134 c37 -35 50
-66 50 -121 0 -70 -41 -127 -104 -144 -113 -30 -207 108 -150 221 41 82 140
104 204 44z"/>
<path d="M3530 1102 c-74 -75 -30 -202 70 -202 31 0 44 7 69 35 25 29 31 45
31 81 0 39 -5 51 -34 80 -45 45 -95 47 -136 6z m110 -32 c41 -41 15 -130 -38
-130 -33 0 -45 8 -61 37 -16 32 -14 57 10 87 25 31 61 34 89 6z"/>
<path d="M1690 1908 l0 -132 -32 31 c-58 56 -129 68 -204 34 -102 -46 -151
-198 -109 -339 19 -63 57 -109 110 -133 74 -34 145 -22 203 34 l32 31 0 -37
c0 -36 1 -37 40 -37 l40 0 0 340 0 340 -40 0 -40 0 0 -132z m-69 -141 c39 -26
68 -96 68 -162 0 -22 -8 -62 -17 -90 -40 -117 -184 -129 -237 -19 -26 53 -26
165 0 218 35 73 120 98 186 53z"/>
<path d="M40 1690 l0 -330 40 0 40 0 0 288 c1 242 3 283 14 262 7 -14 46 -114
86 -223 l74 -198 45 3 45 3 81 213 80 213 3 -281 2 -280 45 0 45 0 0 330 0
330 -67 0 -68 0 -79 -213 c-43 -116 -82 -215 -85 -219 -4 -4 -43 90 -88 210
l-81 217 -66 3 -66 3 0 -331z"/>
<path d="M2410 1685 l0 -325 40 0 40 0 0 325 0 325 -40 0 -40 0 0 -325z"/>
<path d="M950 1851 c-117 -36 -180 -142 -167 -282 13 -146 128 -231 291 -216
35 3 82 13 105 23 38 15 41 19 41 55 l0 38 -47 -21 c-70 -31 -159 -35 -215
-10 -51 22 -76 53 -88 107 l-8 35 190 0 191 0 -7 53 c-12 87 -29 130 -68 169
-52 52 -142 72 -218 49z m130 -74 c33 -17 70 -74 70 -108 l0 -29 -141 0 -141
0 6 33 c17 89 126 144 206 104z"/>
<path d="M2644 1769 c3 -34 6 -140 6 -235 l0 -174 40 0 40 0 0 205 c0 236 -7
265 -62 265 l-31 0 7 -61z"/>
<path d="M2800 1809 c-43 -20 -44 -21 -25 -36 15 -11 34 -13 74 -9 90 11 91 8
91 -216 l0 -188 46 0 46 0 -4 198 c-3 214 -8 235 -64 260 -38 18 -114 14 -164
-9z"/>
<path d="M3285 1816 c-144 -63 -168 -303 -41 -413 19 -17 51 -36 72 -43 41
-14 124 -9 179 11 32 12 35 17 30 39 -9 34 -11 35 -48 22 -48 -17 -124 -15
-157 5 -45 26 -74 88 -73 158 0 33 7 77 16 97 18 42 68 78 109 78 36 0 86 -46
94 -86 l6 -31 -78 -5 c-65 -4 -81 -9 -96 -28 -10 -12 -18 -26 -18 -31 0 -5 56
-9 125 -9 l125 0 11 28 c14 34 4 106 -19 146 -31 52 -76 76 -146 76 -34 -1
-74 -7 -91 -14z"/>
</g>
</svg>
